<svg width="178" height="144" viewBox="0 0 178 144" fill="none" xmlns="http://www.w3.org/2000/svg">
<path d="M37.838 67.4821C37.5699 68.0471 37.0938 68.4871 36.5087 68.7108C35.9236 68.9345 35.2746 68.9246 34.6967 68.6831C34.3936 68.5604 34.1194 68.3762 33.8914 68.1421C33.6634 67.9081 33.4867 67.6293 33.3725 67.3235C33.1522 66.7168 33.1824 66.0476 33.4566 65.4631C33.5936 65.1633 33.791 64.8947 34.0363 64.6741C34.2817 64.4535 34.5699 64.2855 34.883 64.1805C35.1838 64.0768 35.5027 64.0359 35.82 64.0605C36.1373 64.0851 36.4462 64.1745 36.7273 64.3233C37.2748 64.6097 37.6965 65.0885 37.9107 65.667C38.0189 65.9595 38.0682 66.2703 38.0557 66.5818C38.0433 66.8933 37.9693 67.1992 37.838 67.4821Z" fill="url(#paint0_linear_501_3020)"/>
<path d="M38.0561 61.8624C37.4602 61.5133 37.0042 60.9687 36.7659 60.3215C36.6141 59.902 36.5553 59.4547 36.5934 59.0103C36.6315 58.5659 36.7657 58.1351 36.9868 57.7474C37.2078 57.3598 37.5105 57.0245 37.8739 56.7647C38.2373 56.505 38.6528 56.3269 39.0918 56.2427C39.4879 56.1687 39.8949 56.1764 40.2879 56.2652C40.6808 56.3541 41.0514 56.5222 41.3768 56.7593C41.8901 57.1248 42.2805 57.6367 42.4966 58.2277C42.6609 58.6683 42.7205 59.1409 42.6709 59.6084C42.6212 60.0759 42.4636 60.5255 42.2104 60.922C41.7728 61.5825 41.0964 62.0491 40.3225 62.2243C39.5485 62.3995 38.7366 62.2698 38.0561 61.8624Z" fill="url(#paint1_linear_501_3020)"/>
<path d="M43.019 54.6157C42.672 54.3382 42.4073 53.9715 42.2535 53.5552C42.1218 53.1843 42.0787 52.7879 42.1277 52.3975C42.1766 52.0071 42.3163 51.6335 42.5356 51.3064C42.7549 50.9794 43.0477 50.708 43.3907 50.5138C43.7337 50.3196 44.1174 50.208 44.5113 50.1879C44.8439 50.1688 45.177 50.2184 45.4896 50.3334C45.8022 50.4484 46.0877 50.6264 46.3284 50.8564C46.6161 51.1283 46.8363 51.4635 46.9712 51.8353C47.1634 52.3503 47.1797 52.9143 47.0175 53.4395C46.8552 53.9646 46.5235 54.4216 46.074 54.7393C45.6245 55.057 45.0823 55.2175 44.5319 55.196C43.9814 55.1744 43.4535 54.972 43.0303 54.6202L43.019 54.6157Z" fill="url(#paint2_linear_501_3020)"/>
<path d="M49.3447 45.5743C49.5232 45.4202 49.7312 45.3038 49.9561 45.2321C50.1809 45.1605 50.418 45.135 50.653 45.1573C50.8831 45.1772 51.1066 45.244 51.3098 45.3535C51.5129 45.463 51.6914 45.613 51.8341 45.7941C52.1144 46.1472 52.2467 46.595 52.2033 47.0433C52.1599 47.4917 51.9441 47.9059 51.6013 48.199C51.2584 48.4921 50.8151 48.6414 50.3643 48.6155C49.9135 48.5896 49.4903 48.3905 49.1835 48.0601C49.0298 47.8958 48.9109 47.7024 48.8337 47.4913C48.7143 47.1577 48.6992 46.7959 48.7905 46.4535C48.8818 46.1112 49.075 45.8046 49.3447 45.5743Z" fill="url(#paint3_linear_501_3020)"/>
<path d="M59.1933 40.7431C59.2701 40.8718 59.334 41.0076 59.3841 41.1487C59.5931 41.7038 59.5902 42.3163 59.3759 42.8693C59.1615 43.4224 58.7507 43.8775 58.2218 44.148C57.6928 44.4184 57.0826 44.4853 56.5074 44.3359C55.9322 44.1864 55.4322 43.8312 55.1026 43.3377C54.9896 43.1748 54.898 42.9982 54.83 42.812C54.6855 42.3999 54.6546 41.9566 54.7408 41.5286C54.827 41.1005 55.027 40.7035 55.3199 40.3791C55.6128 40.0547 55.9878 39.8149 56.4055 39.6848C56.8232 39.5546 57.2684 39.539 57.6942 39.6396C58.0059 39.7129 58.2994 39.8485 58.5571 40.0382C58.8147 40.2278 59.0312 40.4677 59.1933 40.7431Z" fill="url(#paint4_linear_501_3020)"/>
<path d="M63.5612 36.2451C63.8077 36.133 64.0745 36.0718 64.3454 36.0652C64.6163 36.0586 64.8857 36.1067 65.1375 36.2066C65.3873 36.3032 65.6146 36.4497 65.8056 36.6372C65.9966 36.8246 66.1472 37.049 66.2482 37.2965L66.2777 37.3713C66.4523 37.8504 66.4407 38.3774 66.2452 38.8484C66.0498 39.3194 65.6845 39.7003 65.2215 39.916C64.7403 40.132 64.1934 40.1514 63.698 39.9701C63.2026 39.7888 62.7981 39.4213 62.5709 38.9462C62.5394 38.8846 62.5121 38.821 62.4891 38.7558C62.3178 38.2796 62.333 37.7563 62.5318 37.2908C62.7306 36.8253 63.0982 36.4518 63.5612 36.2451Z" fill="url(#paint5_linear_501_3020)"/>
<path d="M73.6233 34.6657C73.6414 34.7133 73.6551 34.7608 73.6687 34.8084C73.7946 35.2123 73.7545 35.6495 73.5573 36.0239C73.3601 36.3983 73.0219 36.6792 72.6171 36.8048C72.2123 36.9304 71.774 36.8904 71.3987 36.6937C71.0235 36.4969 70.7419 36.1595 70.616 35.7556L70.5956 35.699C70.5316 35.4965 70.509 35.2834 70.5291 35.0721C70.5492 34.8608 70.6117 34.6556 70.7127 34.4688C70.8137 34.2821 70.9513 34.1174 71.1173 33.9846C71.2833 33.8518 71.4743 33.7536 71.679 33.6958C72.0659 33.581 72.4822 33.6174 72.8432 33.7975C73.2043 33.9776 73.4832 34.288 73.6233 34.6657Z" fill="url(#paint6_linear_501_3020)"/>
<path d="M82.1204 32.7781C82.1745 32.9243 82.2111 33.0765 82.2295 33.2313C82.3118 33.7388 82.1989 34.2587 81.9134 34.6867C81.6279 35.1148 81.1909 35.4195 80.6898 35.5398C80.1888 35.6601 79.6607 35.5872 79.2112 35.3356C78.7617 35.084 78.4241 34.6723 78.2659 34.183C78.221 34.0602 78.1875 33.9335 78.166 33.8046C78.1228 33.538 78.1331 33.2656 78.1962 33.003C78.2594 32.7404 78.3742 32.493 78.534 32.275C78.7541 31.9774 79.0508 31.7445 79.3926 31.601C79.7343 31.4576 80.1086 31.4088 80.4759 31.4598C80.8431 31.5109 81.1898 31.6599 81.4792 31.8911C81.7687 32.1223 81.9902 32.4272 82.1204 32.7736V32.7781Z" fill="url(#paint7_linear_501_3020)"/>
<path d="M89.7976 32.411C89.8782 32.6305 89.9046 32.8661 89.8747 33.0979C89.8447 33.3297 89.7594 33.5509 89.6257 33.7429C89.4921 33.9349 89.3141 34.092 89.1069 34.2009C88.8996 34.3098 88.6691 34.3674 88.4348 34.3688C88.0523 34.3659 87.6861 34.2141 87.4141 33.9458C87.1421 33.6774 86.986 33.3137 86.9789 32.9322C86.9747 32.74 87.0095 32.5489 87.0814 32.3706C87.1532 32.1922 87.2605 32.0302 87.3968 31.8943C87.5693 31.7197 87.7832 31.5913 88.0187 31.521C88.2542 31.4508 88.5037 31.4409 88.744 31.4925C88.9843 31.544 89.2077 31.6552 89.3934 31.8157C89.5792 31.9763 89.7214 32.181 89.8067 32.411H89.7976Z" fill="url(#paint8_linear_501_3020)"/>
<path d="M97.8587 33.7049C97.8176 33.9706 97.689 34.2151 97.4931 34.3998C97.2973 34.5845 97.0454 34.6988 96.7772 34.7248C96.5089 34.7508 96.2397 34.6869 96.0119 34.5433C95.7841 34.3996 95.6107 34.1844 95.5192 33.9315C95.453 33.7465 95.4313 33.5486 95.4556 33.3537C95.4739 33.1965 95.5235 33.0446 95.6016 32.9068C95.6796 32.7691 95.7844 32.6483 95.9099 32.5515C96.1025 32.4025 96.3357 32.3149 96.579 32.3001C96.8223 32.2853 97.0645 32.344 97.2739 32.4685C97.4832 32.593 97.6502 32.7775 97.7529 32.9981C97.8556 33.2186 97.8893 33.4649 97.8496 33.7049H97.8587Z" fill="url(#paint9_linear_501_3020)"/>
<path d="M105.084 34.0561C105.276 34.1126 105.452 34.2131 105.598 34.3497C105.744 34.4862 105.855 34.655 105.924 34.8424C106.021 35.1029 106.029 35.3881 105.947 35.6537C105.842 35.9682 105.619 36.2298 105.324 36.3832C105.029 36.5366 104.687 36.5697 104.368 36.4756C104.049 36.3815 103.78 36.1675 103.616 35.8788C103.453 35.5902 103.408 35.2494 103.492 34.9285C103.587 34.6025 103.807 34.3275 104.106 34.1639C104.404 34.0003 104.755 33.9615 105.082 34.0561H105.084Z" fill="url(#paint10_linear_501_3020)"/>
<path d="M113.34 37.8449C113.394 37.99 113.41 38.146 113.389 38.2991C113.368 38.4522 113.309 38.5977 113.218 38.7229C113.128 38.8481 113.007 38.949 112.868 39.0169C112.729 39.0847 112.575 39.1173 112.42 39.1119C112.265 39.1065 112.114 39.0632 111.98 38.9858C111.846 38.9084 111.733 38.7993 111.651 38.6681C111.569 38.5368 111.521 38.3876 111.511 38.2333C111.5 38.0791 111.528 37.9247 111.591 37.7837C111.642 37.6706 111.714 37.5686 111.805 37.4837C111.895 37.3989 112.002 37.333 112.118 37.2897C112.235 37.2455 112.36 37.2249 112.485 37.2292C112.611 37.2334 112.734 37.2625 112.847 37.3146C112.961 37.3656 113.063 37.4387 113.148 37.5298C113.232 37.6209 113.298 37.7281 113.34 37.8449Z" fill="url(#paint11_linear_501_3020)"/>
<path d="M35.6053 75.0347C35.3744 75.7838 34.8618 76.4145 34.1749 76.7948C33.4881 77.175 32.6804 77.2751 31.9211 77.0742C31.4547 76.9564 31.0244 76.7262 30.668 76.4038C30.3116 76.0814 30.0399 75.6767 29.8769 75.2251C29.624 74.526 29.634 73.7591 29.9052 73.0669C30.1763 72.3746 30.69 71.8041 31.351 71.4612C31.7065 71.2799 32.0953 71.1729 32.4937 71.1468C32.8921 71.1207 33.2916 71.176 33.6678 71.3094C34.0986 71.4594 34.4907 71.7029 34.8159 72.0222C35.1411 72.3416 35.3913 72.7288 35.5485 73.1562C35.7725 73.7594 35.7924 74.4192 35.6053 75.0347Z" fill="url(#paint12_linear_501_3020)"/>
<path d="M33.6792 81.2074C33.849 81.6654 33.8998 82.1589 33.8268 82.6418C33.707 83.4017 33.2968 84.0858 32.6824 84.5506C32.0679 85.0153 31.2968 85.2246 30.5311 85.1344C29.9906 85.0767 29.4774 84.8684 29.05 84.5334C28.6226 84.1984 28.2984 83.7502 28.1143 83.24C27.9417 82.7661 27.8909 82.2566 27.9667 81.758C28.0252 81.3602 28.1644 80.9784 28.3757 80.636C28.5869 80.2935 28.8659 79.9976 29.1955 79.7662C29.5134 79.5403 29.8742 79.3816 30.2558 79.2998C30.6374 79.218 31.0317 79.2147 31.4146 79.2903C31.925 79.3897 32.4013 79.6181 32.7978 79.9538C33.1943 80.2895 33.4978 80.7211 33.6792 81.2074Z" fill="url(#paint13_linear_501_3020)"/>
<path d="M28.3846 88.436C28.6428 88.189 28.9489 87.9974 29.284 87.8727C29.6191 87.748 29.9762 87.6929 30.3334 87.7108C30.8749 87.7308 31.3982 87.9114 31.8363 88.2294C32.2745 88.5475 32.6076 88.9886 32.7933 89.4965C32.9046 89.795 32.9592 90.1116 32.9546 90.4301C32.9442 91.1329 32.6614 91.8045 32.1656 92.3038C31.6697 92.8032 30.9992 93.0916 30.2948 93.1085C29.7333 93.1244 29.181 92.9632 28.7165 92.6479C28.2521 92.3326 27.8991 91.8793 27.7078 91.3523C27.5957 91.0444 27.5395 90.7191 27.5419 90.3915C27.5433 90.0258 27.6187 89.6641 27.7635 89.3281C27.9083 88.9921 28.1195 88.6886 28.3846 88.436Z" fill="url(#paint14_linear_501_3020)"/>
<path d="M31.133 100.842C30.6188 100.93 30.0903 100.834 29.6398 100.572C29.1893 100.309 28.8455 99.8975 28.6685 99.408C28.6125 99.253 28.5722 99.0929 28.5482 98.9299C28.5062 98.6303 28.5248 98.3254 28.6028 98.0332C28.6808 97.7409 28.8167 97.4672 29.0024 97.2281C29.1854 96.9939 29.4143 96.7993 29.6752 96.6563C29.9361 96.5133 30.2234 96.4249 30.5197 96.3965C31.1107 96.3162 31.7094 96.4735 32.1841 96.8337C32.6588 97.1938 32.9707 97.7274 33.0511 98.3169C33.1316 98.9065 32.9739 99.5038 32.6129 99.9774C32.2519 100.451 31.7171 100.762 31.1262 100.842H31.133Z" fill="url(#paint15_linear_501_3020)"/>
<path d="M30.1472 107.541C30.1268 107.484 30.1086 107.425 30.0904 107.366C29.9964 107.047 29.9681 106.713 30.0071 106.382C30.0462 106.052 30.1518 105.733 30.3176 105.445C30.4801 105.161 30.6986 104.913 30.9597 104.715C31.2208 104.518 31.5193 104.375 31.8371 104.296C32.4337 104.142 33.0662 104.215 33.6119 104.501C34.1575 104.787 34.5773 105.264 34.7899 105.841C34.8126 105.898 34.8307 105.955 34.8466 106.009C35.0197 106.631 34.9438 107.297 34.6349 107.864C34.326 108.432 33.8083 108.858 33.1908 109.052C32.586 109.24 31.9319 109.188 31.3648 108.906C30.7977 108.625 30.3615 108.135 30.1472 107.541Z" fill="url(#paint16_linear_501_3020)"/>
<path d="M37.1089 113.754C37.2763 114.21 37.2663 114.711 37.0808 115.16C36.8954 115.608 36.5479 115.971 36.1073 116.177C35.8763 116.289 35.6249 116.353 35.3683 116.365C35.1118 116.377 34.8555 116.337 34.615 116.247C34.3702 116.157 34.146 116.02 33.9559 115.842C33.7659 115.664 33.6138 115.449 33.5088 115.211C33.4906 115.168 33.4747 115.127 33.4588 115.084C33.2849 114.618 33.299 114.102 33.498 113.646C33.6971 113.19 34.0657 112.828 34.5264 112.637C34.9967 112.443 35.5239 112.439 35.9971 112.626C36.4703 112.812 36.8526 113.174 37.0635 113.636L37.1089 113.754Z" fill="url(#paint17_linear_501_3020)"/>
<path d="M37.947 122.474C37.891 122.388 37.8446 122.296 37.8085 122.2C37.6854 121.865 37.6907 121.496 37.8236 121.165C37.9565 120.833 38.2075 120.563 38.5283 120.405C38.8491 120.247 39.217 120.214 39.5613 120.31C39.9056 120.407 40.2019 120.627 40.3933 120.928C40.4458 121.013 40.4899 121.103 40.525 121.196C40.6378 121.504 40.6427 121.841 40.5387 122.152C40.4347 122.463 40.2282 122.73 39.9526 122.909C39.7916 123.014 39.6111 123.086 39.4217 123.12C39.2323 123.154 39.0379 123.15 38.8502 123.108C38.6624 123.065 38.4851 122.986 38.3288 122.874C38.1725 122.762 38.0403 122.62 37.9402 122.456L37.947 122.474Z" fill="url(#paint18_linear_501_3020)"/>
<path d="M45.3267 127.262C45.4532 127.411 45.5517 127.581 45.6174 127.765C45.7321 128.083 45.7485 128.427 45.6647 128.755C45.5809 129.082 45.4006 129.376 45.1472 129.6C44.9806 129.747 44.7864 129.858 44.5759 129.929C44.3654 129.999 44.1429 130.027 43.9215 130.01C43.7002 129.993 43.4844 129.933 43.2868 129.832C43.0893 129.731 42.9141 129.591 42.7714 129.421C42.6406 129.272 42.5389 129.1 42.4716 128.914C42.3523 128.589 42.3372 128.235 42.4284 127.902C42.5195 127.568 42.7124 127.271 42.9804 127.051C43.3223 126.775 43.7584 126.643 44.1963 126.682C44.6343 126.722 45.0397 126.929 45.3267 127.262Z" fill="url(#paint19_linear_501_3020)"/>
<path d="M51.0073 135.25C50.8718 135.407 50.7062 135.536 50.5201 135.628C50.3341 135.721 50.1313 135.776 49.9238 135.789C49.7163 135.803 49.5081 135.775 49.3116 135.707C49.115 135.639 48.934 135.533 48.7791 135.395C48.5854 135.222 48.4373 135.004 48.3476 134.76C48.2048 134.369 48.2235 133.938 48.3994 133.561C48.5753 133.184 48.8941 132.893 49.2857 132.75C49.6772 132.608 50.1095 132.626 50.4873 132.802C50.8651 132.977 51.1576 133.295 51.3004 133.686C51.3952 133.949 51.4181 134.233 51.3666 134.507C51.3151 134.782 51.1911 135.038 51.0073 135.25Z" fill="url(#paint20_linear_501_3020)"/>
<path d="M57.1446 138.064C57.3961 138.225 57.5876 138.464 57.6897 138.744C57.7627 138.946 57.7884 139.163 57.7648 139.377C57.7412 139.591 57.6689 139.797 57.5534 139.979C57.4539 140.134 57.3245 140.268 57.1727 140.373C57.0209 140.478 56.8498 140.552 56.6692 140.59C56.4885 140.629 56.3021 140.631 56.1205 140.598C55.939 140.564 55.7659 140.494 55.6114 140.393C55.3582 140.233 55.165 139.994 55.0617 139.714C54.987 139.507 54.9618 139.286 54.9883 139.068C55.0147 138.85 55.092 138.641 55.2139 138.458C55.3144 138.306 55.4442 138.174 55.5958 138.072C55.7473 137.969 55.9177 137.897 56.0971 137.861C56.2765 137.824 56.4614 137.823 56.6412 137.858C56.8209 137.893 56.992 137.963 57.1446 138.064Z" fill="url(#paint21_linear_501_3020)"/>
<path d="M64.263 143.568C64.2213 143.657 64.1623 143.738 64.0894 143.804C64.0166 143.871 63.9312 143.922 63.8384 143.955C63.7455 143.989 63.6469 144.004 63.5483 143.999C63.4496 143.995 63.3529 143.97 63.2636 143.928C63.1745 143.888 63.0946 143.829 63.0286 143.757C62.9627 143.684 62.912 143.599 62.8797 143.507C62.8444 143.414 62.8284 143.314 62.8327 143.214C62.837 143.115 62.8615 143.017 62.9047 142.927C62.9912 142.748 63.1448 142.61 63.3323 142.544C63.5198 142.477 63.7261 142.487 63.9064 142.571C64.0852 142.655 64.2233 142.807 64.2903 142.993C64.3247 143.085 64.3401 143.184 64.3354 143.283C64.3307 143.382 64.3061 143.479 64.263 143.568Z" fill="url(#paint22_linear_501_3020)"/>
<path d="M43.0394 38.3638C43.3102 38.1284 43.6264 37.9508 43.9686 37.8421C44.3109 37.7333 44.6718 37.6957 45.0291 37.7316C45.3734 37.7638 45.7073 37.8664 46.0101 38.0328C46.3129 38.1993 46.5782 38.4261 46.7894 38.6992C46.9635 38.921 47.1015 39.1687 47.1983 39.4334C47.4156 40.002 47.4269 40.6285 47.2303 41.2046C47.0337 41.7807 46.6415 42.2701 46.1216 42.5883C45.6016 42.9066 44.9866 43.0336 44.3828 42.9474C43.7789 42.8612 43.2242 42.5672 42.8146 42.1163C42.5744 41.8649 42.3881 41.5673 42.2672 41.2417C42.0857 40.7407 42.0624 40.1963 42.2004 39.6818C42.3385 39.1672 42.6313 38.7073 43.0394 38.3638Z" fill="url(#paint23_linear_501_3020)"/>
<path d="M36.4979 48.8645C36.1643 48.599 35.9105 48.247 35.7643 47.8471C35.6385 47.4928 35.5974 47.114 35.6445 46.7411C35.6915 46.3681 35.8253 46.0113 36.0352 45.6991C36.245 45.3869 36.5252 45.128 36.8532 44.9431C37.1812 44.7581 37.548 44.6522 37.9243 44.6339C38.2386 44.6175 38.5529 44.6655 38.8479 44.7751C39.1428 44.8846 39.4121 45.0532 39.6392 45.2706C39.9111 45.5312 40.1207 45.8495 40.2525 46.202C40.4372 46.693 40.4539 47.2311 40.3001 47.7326C40.1463 48.2341 39.8306 48.6708 39.4022 48.9746C38.9737 49.2785 38.4566 49.4324 37.9313 49.4125C37.406 49.3926 36.902 49.1999 36.4979 48.8645Z" fill="url(#paint24_linear_501_3020)"/>
<path d="M29.5884 55.5901C29.4457 55.1943 29.3904 54.7725 29.4263 54.3535C29.4621 53.9344 29.5884 53.5281 29.7963 53.1622C30.0043 52.7964 30.289 52.4797 30.631 52.2338C30.9731 51.988 31.3643 51.8188 31.778 51.7378C32.1513 51.6651 32.5356 51.6689 32.9074 51.7492C33.2791 51.8294 33.6306 51.9844 33.9404 52.2046C34.4306 52.5499 34.8038 53.036 35.0102 53.5982C35.2178 54.1586 35.245 54.7696 35.0881 55.3462C34.9311 55.9227 34.5978 56.436 34.1346 56.8146C33.6714 57.1932 33.1013 57.4182 32.5038 57.4583C31.9063 57.4983 31.3112 57.3514 30.8013 57.0381C30.2423 56.7087 29.814 56.1974 29.5884 55.5901Z" fill="url(#paint25_linear_501_3020)"/>
<path d="M29.2636 62.3179C29.3391 62.5196 29.3735 62.7343 29.3649 62.9494C29.3564 63.1646 29.3049 63.3759 29.2137 63.571C29.031 63.9626 28.7023 64.2676 28.2977 64.4212C27.893 64.5748 27.4442 64.5649 27.0468 64.3935C26.8409 64.3071 26.6551 64.1791 26.5012 64.0177C26.3472 63.8563 26.2282 63.6648 26.1519 63.4554C26.0759 63.2502 26.0414 63.032 26.0503 62.8134C26.0593 62.5949 26.1116 62.3802 26.2041 62.1819C26.2987 61.9784 26.4332 61.7959 26.5998 61.6452C26.7665 61.4946 26.9617 61.3789 27.174 61.305C27.3803 61.2337 27.5989 61.2048 27.8167 61.22C28.0346 61.2352 28.247 61.2941 28.4414 61.3933C28.8225 61.5871 29.1162 61.9173 29.2636 62.3179Z" fill="url(#paint26_linear_501_3020)"/>
<path d="M23.1151 69.3131C23.4317 69.1483 23.7786 69.0495 24.1347 69.0226C24.4908 68.9957 24.8487 69.0413 25.1866 69.1567C25.5787 69.287 25.9362 69.5041 26.2324 69.7918C26.5286 70.0794 26.7558 70.4301 26.8969 70.8177C27.1012 71.3615 27.1195 71.9574 26.9491 72.5127C26.742 73.188 26.2797 73.7565 25.6599 74.0978C25.0401 74.4391 24.3116 74.5264 23.6284 74.3413C23.279 74.2472 22.9522 74.0838 22.6674 73.861C22.3826 73.6381 22.1457 73.3603 21.9709 73.0442C21.796 72.7281 21.6867 72.38 21.6496 72.0209C21.6124 71.6617 21.6481 71.2988 21.7545 70.9537C21.8579 70.6024 22.0319 70.2759 22.2658 69.9938C22.4997 69.7118 22.7886 69.4802 23.1151 69.3131Z" fill="url(#paint27_linear_501_3020)"/>
<path d="M22.6449 78.7963C23.0291 78.8665 23.3885 79.0352 23.6876 79.2859C23.9866 79.5366 24.2152 79.8607 24.3507 80.2262C24.4761 80.5688 24.5135 80.9373 24.4597 81.298C24.3671 81.8647 24.0596 82.3742 23.6009 82.721C23.1421 83.0677 22.5672 83.2252 21.9953 83.1607C21.5943 83.1124 21.2147 82.9541 20.8987 82.7032C20.5826 82.4523 20.3426 82.1188 20.2055 81.7399C20.0781 81.3883 20.0398 81.0108 20.0942 80.6409C20.1384 80.347 20.2417 80.065 20.3978 79.8119C20.5539 79.5588 20.7597 79.3398 21.0027 79.168C21.2378 78.9999 21.5042 78.8805 21.7862 78.8167C22.0682 78.7529 22.3602 78.7459 22.6449 78.7963Z" fill="url(#paint28_linear_501_3020)"/>
<path d="M20.0101 88.8257C20.2199 88.6221 20.4691 88.4632 20.7425 88.3588C21.0158 88.2544 21.3076 88.2066 21.6001 88.2184C22.1714 88.2402 22.7119 88.4829 23.107 88.8951C23.5021 89.3074 23.7209 89.8569 23.7171 90.4273C23.7132 90.9977 23.4871 91.5443 23.0864 91.9512C22.6858 92.3582 22.1421 92.5936 21.5706 92.6077C21.1162 92.6166 20.6705 92.4832 20.2961 92.2264C19.9217 91.9695 19.6374 91.602 19.4832 91.1756C19.3903 90.9286 19.3441 90.6666 19.3469 90.4029C19.3456 90.109 19.4036 89.8179 19.5175 89.5469C19.6315 89.2759 19.799 89.0306 20.0101 88.8257Z" fill="url(#paint29_linear_501_3020)"/>
<path d="M20.5643 98.6217C20.727 98.4117 20.9302 98.2363 21.1619 98.106C21.3937 97.9756 21.6492 97.8928 21.9135 97.8626C22.2905 97.8167 22.6729 97.8777 23.0168 98.0386C23.3606 98.1995 23.6521 98.4538 23.8578 98.7723C24.0635 99.0909 24.1751 99.4608 24.1797 99.8397C24.1844 100.219 24.082 100.591 23.8842 100.915C23.6865 101.238 23.4013 101.499 23.0615 101.669C22.7217 101.838 22.341 101.908 21.963 101.872C21.5849 101.835 21.2249 101.693 20.9241 101.462C20.6233 101.23 20.3939 100.919 20.2622 100.564C20.2118 100.426 20.176 100.283 20.1555 100.138C20.1187 99.8705 20.136 99.5988 20.2062 99.3384C20.2764 99.078 20.3982 98.8344 20.5643 98.6217Z" fill="url(#paint30_linear_501_3020)"/>
<path d="M22.8402 109.494C22.791 109.325 22.7761 109.148 22.7963 108.973C22.8165 108.799 22.8715 108.63 22.958 108.477C23.0445 108.323 23.1609 108.189 23.3002 108.081C23.4395 107.973 23.5989 107.894 23.7692 107.849C24.0896 107.764 24.4301 107.802 24.7242 107.954C25.0182 108.107 25.2447 108.363 25.3592 108.674C25.3592 108.705 25.3796 108.735 25.3887 108.767C25.4817 109.103 25.4386 109.463 25.2688 109.769C25.0989 110.074 24.8158 110.301 24.4802 110.4C24.1562 110.499 23.8067 110.47 23.5036 110.319C23.2006 110.168 22.9672 109.907 22.8516 109.589C22.8584 109.557 22.8493 109.526 22.8402 109.494Z" fill="url(#paint31_linear_501_3020)"/>
<path d="M28.9048 117.35L28.9456 117.45C29.0892 117.849 29.0785 118.286 28.9154 118.677C28.7524 119.068 28.4489 119.385 28.0643 119.564C27.8614 119.658 27.6417 119.711 27.418 119.72C27.1944 119.728 26.9713 119.692 26.7617 119.614C26.5522 119.535 26.3604 119.416 26.1976 119.263C26.0348 119.109 25.9042 118.925 25.8134 118.721C25.7975 118.683 25.7816 118.646 25.768 118.608C25.6186 118.205 25.6295 117.761 25.7985 117.366C25.9675 116.971 26.2817 116.656 26.6765 116.485C27.0876 116.309 27.5514 116.301 27.9681 116.463C28.3849 116.625 28.7212 116.943 28.9048 117.35Z" fill="url(#paint32_linear_501_3020)"/>
<path d="M30.9149 126.956C30.8761 126.893 30.8434 126.826 30.8173 126.757C30.7279 126.507 30.7337 126.234 30.8336 125.988C30.9335 125.743 31.1204 125.542 31.3588 125.426C31.5971 125.309 31.8702 125.284 32.126 125.355C32.3818 125.426 32.6023 125.589 32.7456 125.812C32.7869 125.876 32.8212 125.944 32.8479 126.016C32.9298 126.245 32.9318 126.496 32.8535 126.727C32.7752 126.958 32.6212 127.156 32.4163 127.289C32.2973 127.367 32.1638 127.421 32.0238 127.446C31.8837 127.472 31.7399 127.469 31.6009 127.439C31.4601 127.408 31.3268 127.349 31.209 127.266C31.0912 127.184 30.9912 127.078 30.9149 126.956Z" fill="url(#paint33_linear_501_3020)"/>
<path d="M36.8909 134.484C36.8334 134.416 36.7881 134.34 36.7569 134.257C36.696 134.093 36.6951 133.914 36.7541 133.749C36.8132 133.585 36.9286 133.447 37.0798 133.359C37.231 133.271 37.4085 133.239 37.5809 133.269C37.7532 133.299 37.9095 133.389 38.022 133.523C38.0785 133.59 38.1224 133.667 38.1515 133.749C38.2029 133.891 38.21 134.045 38.1719 134.19C38.1338 134.336 38.0522 134.467 37.938 134.565C37.864 134.629 37.7781 134.677 37.6853 134.707C37.5926 134.738 37.4947 134.749 37.3974 134.742C37.3001 134.734 37.2052 134.707 37.1183 134.663C37.0314 134.619 36.9541 134.558 36.8909 134.484Z" fill="url(#paint34_linear_501_3020)"/>
<path d="M50.5826 31.8989C50.9633 31.6529 51.3903 31.487 51.8375 31.4114C52.2847 31.3358 52.7427 31.3521 53.1833 31.4593C53.6107 31.5614 54.0126 31.7497 54.3642 32.0128C54.7158 32.2759 55.0096 32.6081 55.2275 32.9888C55.6879 33.7302 55.8371 34.6227 55.6429 35.473C55.4486 36.3234 54.9265 37.0632 54.1896 37.5324C53.4527 38.0016 52.5602 38.1624 51.7053 37.98C50.8504 37.7976 50.1019 37.2867 49.6218 36.5578C49.4578 36.3261 49.325 36.0739 49.2266 35.8077C48.9699 35.0998 48.9645 34.3254 49.2113 33.6139C49.4581 32.9025 49.9422 32.2971 50.5826 31.8989Z" fill="url(#paint35_linear_501_3020)"/>
<path d="M59.4069 27.283C59.8004 27.1021 60.2268 27.0034 60.66 26.9929C61.0931 26.9824 61.5239 27.0603 61.9258 27.2218C62.3194 27.3764 62.6769 27.6101 62.9762 27.9083C63.2755 28.2065 63.5102 28.5629 63.6656 28.9553L63.702 29.046C63.9914 29.812 63.9741 30.6598 63.6538 31.4135C63.3334 32.1671 62.7345 32.7689 61.9814 33.0938C61.2282 33.4188 60.3786 33.4421 59.6087 33.1588C58.8388 32.8756 58.2078 32.3076 57.8464 31.5726C57.7911 31.4654 57.7425 31.3549 57.7011 31.2417C57.4336 30.4888 57.4607 29.663 57.7769 28.9291C58.0931 28.1952 58.6752 27.6074 59.4069 27.283Z" fill="url(#paint36_linear_501_3020)"/>
<path d="M72.6262 26.1069C72.8298 26.8806 72.7255 27.7028 72.3352 28.4015C71.945 29.1002 71.2989 29.6212 70.5323 29.8555C69.7657 30.0897 68.938 30.019 68.2224 29.6582C67.5069 29.2974 66.959 28.6745 66.6934 27.9197L66.6638 27.8336C66.5346 27.4466 66.4852 27.0374 66.5188 26.6308C66.5524 26.2243 66.6682 25.8286 66.8592 25.4679C67.1377 24.9373 67.5637 24.498 68.0861 24.2029C68.6086 23.9077 69.2053 23.7692 69.8047 23.8039C70.4041 23.8386 70.9807 24.045 71.4654 24.3984C71.9502 24.7519 72.3224 25.2373 72.5376 25.7965C72.573 25.8982 72.6026 26.0018 72.6262 26.1069Z" fill="url(#paint37_linear_501_3020)"/>
<path d="M81.0983 24.0766C81.2041 24.3642 81.252 24.6698 81.2394 24.9758C81.2267 25.2819 81.1538 25.5825 81.0247 25.8605C80.8956 26.1385 80.7129 26.3883 80.4871 26.5959C80.2612 26.8034 79.9965 26.9645 79.7083 27.07C79.42 27.1755 79.1137 27.2233 78.8069 27.2107C78.5001 27.1981 78.1987 27.1253 77.9201 26.9965C77.6415 26.8678 77.391 26.6855 77.183 26.4602C76.975 26.2348 76.8135 25.9708 76.7078 25.6832C76.6603 25.552 76.6239 25.4171 76.5988 25.2798C76.5432 24.9767 76.5501 24.6653 76.6193 24.3649C76.6884 24.0645 76.8182 23.7814 77.0008 23.5327C77.2504 23.1935 77.5869 22.9275 77.975 22.7627C78.3631 22.5978 78.7885 22.5402 79.2066 22.5958C79.6247 22.6514 80.0201 22.8183 80.3513 23.0788C80.6826 23.3393 80.9375 23.684 81.0892 24.0766H81.0983Z" fill="url(#paint38_linear_501_3020)"/>
<path d="M90.8061 23.3265C90.9169 23.6305 90.9685 23.9527 90.9583 24.276C90.9384 24.947 90.6572 25.5838 90.1744 26.0514C89.6916 26.519 89.0452 26.7805 88.3723 26.7805C87.6995 26.7805 87.0531 26.519 86.5703 26.0514C86.0875 25.5838 85.8063 24.947 85.7864 24.276C85.775 23.9356 85.8329 23.5964 85.9566 23.2789C86.0804 22.9615 86.2674 22.6724 86.5064 22.4292C86.8128 22.1165 87.1934 21.8861 87.6128 21.7593C88.0323 21.6324 88.4771 21.6133 88.9059 21.7037C89.3347 21.7941 89.7337 21.9911 90.0659 22.2764C90.3981 22.5616 90.6527 22.926 90.8061 23.3356V23.3265Z" fill="url(#paint39_linear_501_3020)"/>
<path d="M97.5907 26.6213C97.2779 26.5762 96.9835 26.4469 96.7389 26.2472C96.4944 26.0476 96.3091 25.7852 96.2029 25.4883C96.1067 25.2278 96.074 24.9482 96.1075 24.6725C96.1333 24.4437 96.2054 24.2225 96.3194 24.0223C96.4334 23.8221 96.5869 23.6471 96.7707 23.5078C96.9892 23.3388 97.2445 23.2236 97.5161 23.1716C97.7876 23.1197 98.0676 23.1324 98.3332 23.2088C98.5989 23.2852 98.8427 23.4232 99.0448 23.6114C99.2469 23.7996 99.4016 24.0327 99.4963 24.2918C99.6009 24.5726 99.6283 24.8762 99.5758 25.1711C99.4998 25.6233 99.2497 26.028 98.8789 26.2989C98.508 26.5699 98.0458 26.6855 97.5907 26.6213Z" fill="url(#paint40_linear_501_3020)"/>
<path d="M106.538 28.876C106.026 28.7233 105.595 28.3771 105.336 27.9113C105.077 27.4455 105.011 26.8971 105.152 26.3834C105.221 26.124 105.342 25.8812 105.507 25.6697C105.673 25.4583 105.88 25.2825 106.115 25.153C106.352 25.0202 106.614 24.9365 106.885 24.9069C107.155 24.8773 107.429 24.9024 107.689 24.9807C107.995 25.0703 108.276 25.2301 108.509 25.4473C108.742 25.6645 108.921 25.9331 109.031 26.2316C109.186 26.65 109.195 27.1078 109.059 27.5323C108.895 28.0385 108.54 28.4614 108.07 28.7121C107.6 28.9628 107.05 29.0215 106.538 28.876Z" fill="url(#paint41_linear_501_3020)"/>
<path d="M117.213 29.7937C117.272 29.9527 117.299 30.1219 117.291 30.2912C117.283 30.4606 117.241 30.6266 117.168 30.7795C117.021 31.0822 116.762 31.3162 116.446 31.4317C116.13 31.5473 115.781 31.5352 115.473 31.3981C115.319 31.3281 115.181 31.228 115.066 31.1039C114.951 30.9798 114.863 30.834 114.805 30.6752C114.69 30.3649 114.7 30.0222 114.833 29.719C114.935 29.485 115.106 29.2871 115.323 29.1507C115.539 29.0143 115.792 28.9458 116.048 28.9538C116.304 28.9618 116.552 29.0461 116.759 29.1958C116.967 29.3455 117.125 29.5537 117.213 29.7937Z" fill="url(#paint42_linear_501_3020)"/>
<path d="M125.274 33.3219C125.465 33.4439 125.63 33.6023 125.759 33.7879C125.889 33.9735 125.981 34.1827 126.029 34.4036C126.078 34.6246 126.082 34.8529 126.042 35.0755C126.002 35.2982 125.919 35.5108 125.796 35.7012C125.674 35.8917 125.515 36.0563 125.329 36.1855C125.143 36.3148 124.934 36.4062 124.712 36.4546C124.491 36.503 124.262 36.5074 124.039 36.4676C123.815 36.4277 123.602 36.3444 123.411 36.2224C123.096 36.0195 122.857 35.7184 122.73 35.3659C122.607 35.0274 122.593 34.6588 122.69 34.312C122.787 33.9652 122.991 33.6576 123.273 33.4324C123.555 33.2073 123.901 33.076 124.261 33.057C124.622 33.038 124.979 33.1322 125.283 33.3265L125.274 33.3219Z" fill="url(#paint43_linear_501_3020)"/>
<path d="M132.717 39.5376C132.87 39.6656 132.985 39.8312 133.053 40.018C133.142 40.2609 133.147 40.5263 133.069 40.7727C132.99 41.019 132.832 41.2324 132.619 41.3795C132.406 41.5266 132.15 41.5991 131.891 41.5856C131.632 41.5722 131.385 41.4735 131.189 41.3051C131.039 41.1746 130.924 41.0087 130.855 40.8224C130.792 40.6534 130.769 40.4721 130.789 40.2929C130.808 40.1137 130.869 39.9414 130.966 39.7895C131.063 39.6375 131.194 39.5102 131.349 39.4173C131.504 39.3245 131.679 39.2687 131.859 39.2544C132.014 39.2416 132.169 39.2601 132.317 39.3088C132.464 39.3574 132.601 39.4353 132.717 39.5376Z" fill="url(#paint44_linear_501_3020)"/>
<path d="M139.561 46.3357C139.66 46.4412 139.737 46.5652 139.788 46.7005C139.874 46.9354 139.881 47.1916 139.809 47.4309C139.737 47.6703 139.589 47.88 139.388 48.0289C139.186 48.1777 138.942 48.2578 138.692 48.2571C138.441 48.2564 138.198 48.175 137.997 48.025C137.797 47.8751 137.65 47.6645 137.579 47.4248C137.509 47.185 137.517 46.9289 137.604 46.6945C137.691 46.46 137.852 46.2599 138.062 46.1238C138.272 45.9877 138.52 45.9229 138.77 45.9391C138.922 45.9491 139.07 45.9893 139.206 46.0574C139.342 46.1255 139.462 46.2202 139.561 46.3357Z" fill="url(#paint45_linear_501_3020)"/>
<path d="M65.7644 13.4988C66.7187 13.2152 67.7452 13.3018 68.6382 13.7414C69.5311 14.1809 70.2246 14.9409 70.5797 15.8691C70.6306 16.0101 70.6738 16.1539 70.7091 16.2996C70.9647 17.289 70.8267 18.3387 70.324 19.2289C69.8213 20.1192 68.9929 20.7808 68.0122 21.0754C67.0316 21.37 65.9747 21.2747 65.0629 20.8094C64.151 20.3441 63.455 19.5449 63.1205 18.5792L63.0955 18.509C62.9254 18.0173 62.8577 17.4962 62.8968 16.9775C62.9358 16.4589 63.0808 15.9537 63.3227 15.4929C63.5717 15.0118 63.9168 14.5867 64.3367 14.2438C64.7566 13.9008 65.2425 13.6473 65.7644 13.4988Z" fill="url(#paint46_linear_501_3020)"/>
<path d="M55.0595 17.6094C55.5304 17.3929 56.0407 17.2748 56.559 17.2623C57.0773 17.2499 57.5928 17.3433 58.0736 17.5368C58.5407 17.7224 58.9647 18.0015 59.3194 18.3569C59.6742 18.7124 59.9521 19.1366 60.136 19.6035L60.1723 19.6986C60.5252 20.6117 60.5108 21.6255 60.1321 22.5282C59.7533 23.4309 59.0395 24.1526 58.1399 24.5426C57.2402 24.9326 56.2243 24.9606 55.3044 24.6208C54.3846 24.281 53.6319 23.5997 53.2038 22.7192C53.1377 22.588 53.0785 22.4533 53.0266 22.3159C52.712 21.42 52.7463 20.4389 53.1229 19.5671C53.4994 18.6953 54.1907 17.9965 55.0595 17.6094Z" fill="url(#paint47_linear_501_3020)"/>
<path d="M44.2978 28.0784C44.0451 27.718 43.869 27.3099 43.7804 26.8791C43.6918 26.4483 43.6926 26.0039 43.7826 25.5734C43.8726 25.1429 44.05 24.7354 44.3038 24.3758C44.5576 24.0163 44.8825 23.7124 45.2585 23.4829C45.634 23.2405 46.0551 23.0773 46.4961 23.0032C46.9371 22.9292 47.3886 22.9459 47.8229 23.0523C48.2435 23.1529 48.6391 23.338 48.9855 23.5963C49.3319 23.8547 49.6218 24.1808 49.8376 24.5547C49.9362 24.7258 50.0205 24.9046 50.0897 25.0895C50.3752 25.8407 50.3739 26.6704 50.0861 27.4207C49.7983 28.1711 49.244 28.7897 48.5287 29.1588C47.8134 29.5279 46.9871 29.6218 46.207 29.4225C45.4268 29.2233 44.7473 28.7449 44.2978 28.0784Z" fill="url(#paint48_linear_501_3020)"/>
<path d="M38.5399 29.8912C38.9153 29.9246 39.28 30.0341 39.6115 30.2129C39.9431 30.3917 40.2346 30.6362 40.4682 30.9313C40.6624 31.1781 40.8157 31.4542 40.9225 31.7493C41.1556 32.3707 41.164 33.0538 40.9461 33.6807C40.7282 34.3076 40.2978 34.839 39.7292 35.1831C39.1605 35.5272 38.4893 35.6624 37.8314 35.5655C37.1734 35.4685 36.5701 35.1455 36.1254 34.6521C35.8725 34.3816 35.6763 34.0634 35.5485 33.7162C35.3885 33.2612 35.3455 32.7735 35.4234 32.2977C35.5013 31.8218 35.6976 31.3731 35.9943 30.9925C36.291 30.612 36.6787 30.3117 37.1218 30.1193C37.565 29.9269 38.0494 29.8485 38.5308 29.8912H38.5399Z" fill="url(#paint49_linear_501_3020)"/>
<path d="M28.8957 39.0074C29.0845 38.7885 29.316 38.6104 29.5761 38.4838C29.8361 38.3572 30.1193 38.2847 30.4084 38.2709C30.6909 38.2557 30.9735 38.2977 31.2393 38.3943C31.5052 38.4909 31.7486 38.64 31.9552 38.8329C32.2063 39.0666 32.3986 39.3562 32.5162 39.6781C32.6814 40.1199 32.6952 40.6039 32.5556 41.0544C32.416 41.5049 32.1308 41.8966 31.7445 42.1683C31.3582 42.4401 30.8926 42.5766 30.4204 42.5565C29.9482 42.5364 29.4959 42.3609 29.1342 42.0574C28.8411 41.8189 28.6182 41.5057 28.4891 41.151C28.3581 40.7901 28.3267 40.4008 28.3982 40.0237C28.4698 39.6465 28.6416 39.2955 28.8957 39.0074Z" fill="url(#paint50_linear_501_3020)"/>
<path d="M22.4223 48.1281C22.5533 47.9249 22.7239 47.7501 22.9241 47.6142C23.1244 47.4784 23.35 47.3842 23.5875 47.3372C23.8219 47.2892 24.0636 47.2894 24.2979 47.3377C24.5322 47.386 24.7542 47.4814 24.9503 47.6182C25.263 47.8311 25.5012 48.1361 25.6317 48.4906C25.768 48.8436 25.7889 49.2306 25.6914 49.5961C25.5938 49.9616 25.3829 50.287 25.0887 50.5257C24.7946 50.7643 24.4323 50.904 24.0537 50.9247C23.6751 50.9455 23.2996 50.8462 22.9811 50.6411C22.6375 50.4319 22.3755 50.1122 22.2383 49.7347C22.1407 49.4712 22.1064 49.1886 22.1384 48.9095C22.1703 48.6304 22.2676 48.3628 22.4223 48.1281Z" fill="url(#paint51_linear_501_3020)"/>
<path d="M20.0147 58.1416C20.0811 58.3197 20.1113 58.5092 20.1035 58.6991C20.0957 58.8889 20.0501 59.0754 19.9692 59.2474C19.8058 59.5898 19.5156 59.8555 19.1597 59.9886C18.8038 60.1217 18.4101 60.1119 18.0613 59.9612C17.8816 59.8851 17.7196 59.7728 17.5855 59.6312C17.4514 59.4897 17.3482 59.322 17.2822 59.1386C17.2165 58.9591 17.1871 58.7683 17.1957 58.5774C17.2043 58.3864 17.2506 58.199 17.3322 58.026C17.4121 57.8505 17.5265 57.6927 17.6688 57.5621C17.811 57.4316 17.978 57.3308 18.16 57.266C18.342 57.2011 18.5353 57.1733 18.7282 57.1844C18.9212 57.1955 19.1099 57.2451 19.2833 57.3304C19.6236 57.4955 19.886 57.7865 20.0147 58.1416Z" fill="url(#paint52_linear_501_3020)"/>
<path d="M16.008 68.3681C16.1077 68.6334 16.1173 68.924 16.0352 69.1952C15.9901 69.3665 15.9109 69.527 15.8023 69.667C15.6937 69.8071 15.5579 69.9239 15.403 70.0105C15.2482 70.0971 15.0774 70.1517 14.901 70.171C14.7245 70.1903 14.546 70.174 14.376 70.123C14.206 70.072 14.0481 69.9874 13.9116 69.8742C13.7751 69.761 13.6628 69.6215 13.5815 69.464C13.5003 69.3066 13.4516 69.1345 13.4384 68.9578C13.4252 68.7812 13.4479 68.6038 13.5049 68.4361C13.5541 68.2656 13.6374 68.1068 13.7498 67.9693C13.8623 67.8318 14.0015 67.7185 14.1591 67.6362C14.3127 67.5546 14.4813 67.5051 14.6547 67.4907C14.8281 67.4763 15.0026 67.4973 15.1676 67.5524C15.3614 67.6141 15.5383 67.7199 15.6841 67.8614C15.83 68.003 15.9409 68.1765 16.008 68.3681Z" fill="url(#paint53_linear_501_3020)"/>
<path d="M13.4141 79.066C13.4806 79.2384 13.5002 79.4252 13.4709 79.6076C13.4254 79.8945 13.2693 80.1523 13.0359 80.3259C12.8024 80.4995 12.5102 80.5751 12.2216 80.5366C12.0222 80.5106 11.8337 80.4306 11.6767 80.3051C11.5197 80.1796 11.4002 80.0136 11.3313 79.8251C11.2678 79.6489 11.249 79.4597 11.2768 79.2745C11.2986 79.1296 11.349 78.9905 11.4253 78.8653C11.5015 78.7402 11.602 78.6314 11.7208 78.5453C11.8396 78.4592 11.9744 78.3977 12.1173 78.3641C12.2603 78.3306 12.4084 78.3257 12.5533 78.3499C12.7477 78.382 12.93 78.4652 13.0813 78.5911C13.2327 78.717 13.3475 78.881 13.4141 79.066Z" fill="url(#paint54_linear_501_3020)"/>
<path d="M12.4783 89.9497C12.5206 90.0627 12.5414 90.1825 12.5396 90.3032C12.5394 90.5423 12.4548 90.7738 12.3006 90.9569C12.1463 91.14 11.9323 91.2631 11.6962 91.3045C11.4601 91.3458 11.2169 91.3029 11.0093 91.1832C10.8018 91.0635 10.6431 90.8747 10.5613 90.6499C10.5192 90.5344 10.4977 90.4124 10.4977 90.2896C10.499 90.1543 10.5274 90.0207 10.5813 89.8966C10.6351 89.7724 10.7132 89.6603 10.8111 89.5667C10.9071 89.4733 11.0209 89.3999 11.1457 89.3509C11.2705 89.3019 11.4039 89.2782 11.5379 89.2812C11.7434 89.2872 11.9425 89.3539 12.1099 89.4729C12.2773 89.5919 12.4055 89.7579 12.4783 89.9497Z" fill="url(#paint55_linear_501_3020)"/>
<path d="M13.5277 100.695C13.5633 100.786 13.5877 100.881 13.6003 100.978C13.6509 101.317 13.5737 101.662 13.3838 101.947C13.1939 102.232 12.9048 102.437 12.5724 102.521C12.24 102.606 11.888 102.564 11.5844 102.405C11.2809 102.246 11.0474 101.979 10.9292 101.658C10.8934 101.566 10.8689 101.47 10.8566 101.373C10.8304 101.191 10.8406 101.007 10.8868 100.83C10.9329 100.653 11.0139 100.486 11.1251 100.341C11.2364 100.195 11.3756 100.073 11.5346 99.982C11.6936 99.8907 11.8692 99.8319 12.0513 99.8091C12.3616 99.7676 12.6769 99.8327 12.9453 99.9937C13.2136 100.155 13.419 100.402 13.5277 100.695Z" fill="url(#paint56_linear_501_3020)"/>
<path d="M15.5401 111.436L15.5651 111.509C15.6411 111.791 15.6049 112.091 15.4641 112.347C15.3233 112.604 15.0887 112.796 14.8093 112.883C14.53 112.971 14.2274 112.948 13.9649 112.818C13.7024 112.689 13.5001 112.463 13.4005 112.188L13.3777 112.123C13.3367 111.979 13.3245 111.828 13.3421 111.68C13.3597 111.531 13.4065 111.387 13.48 111.257C13.5535 111.127 13.6522 111.012 13.7703 110.92C13.8884 110.828 14.0236 110.76 14.1682 110.72C14.4452 110.647 14.7396 110.68 14.9935 110.812C15.2474 110.945 15.4424 111.167 15.5401 111.436Z" fill="url(#paint57_linear_501_3020)"/>
<path d="M74.5386 16.0526C74.4781 15.8825 74.4295 15.7083 74.3933 15.5314C74.3124 15.1191 74.3173 14.6945 74.4075 14.2841C74.4978 13.8736 74.6715 13.4861 74.918 13.1453C75.2866 12.6076 75.8122 12.1962 76.4234 11.9669C77.0345 11.7376 77.7016 11.7016 78.3341 11.8637C78.9665 12.0258 79.5335 12.3782 79.9582 12.8731C80.3828 13.3679 80.6445 13.9812 80.7076 14.6296C80.8267 15.4194 80.6427 16.225 80.1923 16.8855C79.742 17.5459 79.0586 18.0126 78.2784 18.1923C77.4983 18.372 76.679 18.2515 75.984 17.8548C75.2891 17.4582 74.7697 16.8146 74.5296 16.0526H74.5386Z" fill="url(#paint58_linear_501_3020)"/>
<path d="M84.8847 14.3146C84.8641 13.8486 84.9391 13.3834 85.1051 12.9474C85.2711 12.5114 85.5246 12.1138 85.85 11.7789C86.2694 11.3473 86.7911 11.0282 87.3668 10.851C87.9425 10.6738 88.5538 10.6442 89.144 10.7651C89.7342 10.8859 90.2843 11.1532 90.7436 11.5423C91.2028 11.9314 91.5563 12.4297 91.7714 12.9912C91.9289 13.4163 91.9984 13.8688 91.9759 14.3214C91.9579 15.1471 91.6501 15.9404 91.1061 16.563C90.5621 17.1856 89.8164 17.5981 88.9989 17.7286C88.1814 17.8591 87.344 17.6993 86.6324 17.2771C85.9209 16.8549 85.3803 16.1971 85.105 15.4181C84.975 15.0638 84.9007 14.6916 84.8847 14.3146Z" fill="url(#paint59_linear_501_3020)"/>
<path d="M98.9671 17.4598C98.5259 17.393 98.111 17.2087 97.766 16.9264C97.421 16.644 97.1588 16.2741 97.0069 15.8555C96.8751 15.4932 96.8277 15.1057 96.8684 14.7225C96.9021 14.3992 97.0012 14.0861 97.1597 13.8022C97.3182 13.5182 97.5328 13.2693 97.7905 13.0705C98.0999 12.8331 98.4607 12.6713 98.8441 12.5981C99.2274 12.5249 99.6226 12.5423 99.998 12.6489C100.373 12.7556 100.719 12.9484 101.006 13.2121C101.293 13.4758 101.514 13.8029 101.652 14.1673C101.799 14.5711 101.836 15.0067 101.759 15.4295C101.645 16.0614 101.291 16.6253 100.771 17.0035C100.251 17.3817 99.605 17.5452 98.9671 17.4598Z" fill="url(#paint60_linear_501_3020)"/>
<path d="M112.623 16.3925C112.839 16.9759 112.849 17.6157 112.65 18.2053C112.475 18.7604 112.129 19.2467 111.663 19.5958C111.196 19.9449 110.631 20.1392 110.048 20.1515C109.465 20.1638 108.893 19.9933 108.412 19.6641C107.931 19.3349 107.565 18.8636 107.367 18.3164C107.168 17.7742 107.14 17.1847 107.285 16.6259C107.376 16.2696 107.539 15.9355 107.763 15.6438C107.988 15.352 108.269 15.1088 108.591 14.9287C108.946 14.7289 109.341 14.6084 109.748 14.5755C110.155 14.5426 110.564 14.5981 110.947 14.7381C111.33 14.8781 111.678 15.0993 111.968 15.3865C112.257 15.6736 112.48 16.02 112.623 16.4016V16.3925Z" fill="url(#paint61_linear_501_3020)"/>
<path d="M121.876 20.5597C121.957 20.7793 121.993 21.0132 121.98 21.247C121.968 21.4808 121.908 21.7096 121.803 21.9193C121.654 22.2324 121.415 22.4944 121.117 22.6726C120.819 22.8507 120.475 22.9369 120.128 22.9205C119.781 22.904 119.446 22.7855 119.167 22.58C118.887 22.3745 118.674 22.091 118.555 21.7652C118.399 21.3397 118.41 20.8707 118.587 20.4532C118.677 20.2383 118.809 20.0438 118.977 19.8818C119.145 19.7197 119.343 19.5934 119.562 19.5106C119.783 19.4238 120.019 19.3829 120.256 19.3903C120.494 19.3977 120.727 19.4532 120.943 19.5536C121.158 19.6505 121.351 19.7895 121.511 19.9623C121.672 20.1351 121.796 20.3383 121.876 20.5597Z" fill="url(#paint62_linear_501_3020)"/>
<path d="M131.168 24.2352C131.642 24.5361 132.004 24.9845 132.197 25.511C132.335 25.8867 132.381 26.2898 132.332 26.6869C132.283 27.0841 132.14 27.4639 131.915 27.7951C131.539 28.3459 130.964 28.73 130.31 28.8669C129.656 29.0038 128.975 28.8828 128.408 28.5293C127.942 28.2305 127.587 27.787 127.398 27.2671C127.266 26.903 127.217 26.5139 127.257 26.1286C127.296 25.7434 127.422 25.3719 127.625 25.0419C127.799 24.7536 128.029 24.5034 128.302 24.3064C128.576 24.1093 128.886 23.9695 129.215 23.8953C129.547 23.8187 129.89 23.8094 130.226 23.8678C130.562 23.9261 130.882 24.0511 131.168 24.2352Z" fill="url(#paint63_linear_501_3020)"/>
<path d="M139.518 31.7629C139.712 31.9299 139.859 32.1436 139.947 32.3838C140.041 32.6367 140.063 32.9103 140.012 33.1751C139.962 33.4398 139.839 33.6857 139.659 33.8862C139.399 34.1867 139.031 34.3721 138.634 34.4016C138.238 34.4311 137.846 34.3024 137.545 34.0437C137.244 33.7849 137.058 33.4174 137.028 33.022C136.999 32.6266 137.128 32.2356 137.387 31.9351C137.514 31.7825 137.67 31.6566 137.846 31.5651C138.023 31.4736 138.216 31.4181 138.414 31.4021C138.612 31.386 138.811 31.4097 139 31.4717C139.189 31.5336 139.363 31.6327 139.513 31.7629H139.518Z" fill="url(#paint64_linear_501_3020)"/>
<path d="M147.479 41.9962C147.105 42.307 146.624 42.4606 146.138 42.4246C145.653 42.3887 145.2 42.1661 144.876 41.8036C144.728 41.6352 144.612 41.4408 144.535 41.2303C144.406 40.8805 144.386 40.5002 144.476 40.1386C144.566 39.777 144.763 39.4508 145.042 39.2022C145.223 39.037 145.435 38.9101 145.667 38.8291C145.898 38.7481 146.144 38.7147 146.389 38.7309C146.636 38.7452 146.879 38.8089 147.102 38.9183C147.324 39.0277 147.523 39.1805 147.685 39.3677C147.834 39.5399 147.951 39.7371 148.031 39.95C148.159 40.3065 148.175 40.6937 148.077 41.0596C147.978 41.4254 147.769 41.7523 147.479 41.9962Z" fill="url(#paint65_linear_501_3020)"/>
<path d="M151.481 50.1584C151.416 50.0584 151.362 49.9512 151.322 49.8389C151.197 49.4984 151.191 49.126 151.305 48.7815C151.418 48.4371 151.644 48.1407 151.947 47.94C152.123 47.8235 152.322 47.7434 152.53 47.7045C152.738 47.6656 152.952 47.6686 153.159 47.7134C153.371 47.757 153.572 47.8424 153.749 47.9646C153.927 48.0868 154.079 48.2433 154.195 48.4249C154.258 48.5242 154.311 48.6298 154.352 48.7399C154.49 49.1121 154.485 49.5221 154.339 49.8911C154.192 50.2601 153.914 50.5621 153.558 50.7389C153.202 50.9157 152.793 50.955 152.409 50.8491C152.026 50.7432 151.695 50.4996 151.481 50.1652V50.1584Z" fill="url(#paint66_linear_501_3020)"/>
<path d="M159.013 58.4067C159.024 58.4316 159.045 58.4838 159.045 58.4838C159.139 58.7323 159.133 59.0079 159.028 59.252C158.922 59.4961 158.725 59.6896 158.479 59.7914C158.233 59.8931 157.957 59.8951 157.709 59.7969C157.461 59.6987 157.262 59.5081 157.153 59.2655C157.14 59.2409 157.129 59.2151 157.121 59.1885C157.026 58.94 157.032 58.6644 157.138 58.4203C157.243 58.1761 157.44 57.9827 157.686 57.8809C157.932 57.7792 158.209 57.7772 158.456 57.8753C158.704 57.9735 158.904 58.1641 159.013 58.4067Z" fill="url(#paint67_linear_501_3020)"/>
<path d="M163.017 68.6378L163.038 68.699C163.082 68.8463 163.096 69.0008 163.08 69.1537C163.064 69.3067 163.018 69.4549 162.945 69.59C162.871 69.725 162.771 69.8441 162.651 69.9405C162.531 70.0369 162.393 70.1086 162.245 70.1515C161.958 70.2334 161.651 70.2037 161.386 70.0682C161.121 69.9327 160.917 69.7016 160.816 69.4218L160.796 69.3629C160.702 69.0699 160.727 68.7517 160.867 68.4775C161.007 68.2033 161.25 67.9953 161.543 67.8989C161.836 67.8024 162.155 67.8252 162.431 67.9623C162.707 68.0994 162.918 68.3397 163.017 68.631V68.6378Z" fill="url(#paint68_linear_501_3020)"/>
<path d="M104.123 2.53809C104.318 3.07113 104.362 3.64705 104.253 4.20362C104.102 5.0244 103.64 5.75586 102.964 6.24648C102.287 6.7371 101.447 6.94925 100.618 6.839C100.043 6.75183 99.5023 6.51095 99.0533 6.14192C98.6042 5.77289 98.2636 5.28946 98.0677 4.74293C97.8963 4.27587 97.8319 3.77647 97.8791 3.28135C97.9182 2.86019 98.0433 2.45148 98.2469 2.08045C98.4504 1.70942 98.728 1.38394 99.0625 1.1241C99.4662 0.810724 99.938 0.596187 100.44 0.497709C100.942 0.399231 101.46 0.419557 101.952 0.55707C102.445 0.694584 102.898 0.94545 103.276 1.2895C103.654 1.63355 103.946 2.06119 104.128 2.53809H104.123Z" fill="url(#paint69_linear_501_3020)"/>
<path d="M115.855 5.42047C116.058 5.97871 116.064 6.58984 115.871 7.15171C115.65 7.80601 115.186 8.35053 114.574 8.6721C113.962 8.99368 113.249 9.06757 112.584 8.87841C112.188 8.75953 111.825 8.54959 111.525 8.26545C111.224 7.98131 110.995 7.63089 110.855 7.24234C110.669 6.73396 110.639 6.18165 110.769 5.65613C110.851 5.3164 111.003 4.99713 111.214 4.71807C111.425 4.439 111.691 4.20607 111.996 4.03367C112.335 3.84216 112.712 3.72616 113.101 3.69362C113.489 3.66107 113.881 3.71276 114.247 3.84513C114.614 3.9775 114.948 4.18741 115.226 4.4605C115.503 4.73358 115.719 5.06337 115.857 5.42726L115.855 5.42047Z" fill="url(#paint70_linear_501_3020)"/>
<path d="M127.913 9.72363C128.052 10.1001 128.112 10.5012 128.088 10.9017C128.064 11.3021 127.957 11.6934 127.775 12.0508C127.427 12.7462 126.823 13.2802 126.089 13.5413C125.355 13.8023 124.549 13.77 123.838 13.4512C123.483 13.2875 123.163 13.0547 122.898 12.7664C122.633 12.4781 122.429 12.1401 122.296 11.7721C122.033 11.0553 122.049 10.2659 122.342 9.56049C122.489 9.19544 122.711 8.86461 122.992 8.58861C123.273 8.3126 123.609 8.09731 123.977 7.95614C124.352 7.8116 124.751 7.74273 125.153 7.75351C125.554 7.76429 125.949 7.85451 126.316 8.01895C126.682 8.18338 127.012 8.41874 127.286 8.71138C127.56 9.00402 127.773 9.34809 127.913 9.72363Z" fill="url(#paint71_linear_501_3020)"/>
<path d="M137.766 17.8836C137.47 18.3174 137.016 18.6191 136.5 18.7248C135.985 18.8305 135.448 18.732 135.004 18.4501C134.64 18.2152 134.363 17.8684 134.214 17.4621C134.109 17.176 134.069 16.8701 134.097 16.5667C134.126 16.2633 134.221 15.9701 134.378 15.7082C134.514 15.4815 134.694 15.2845 134.908 15.1288C135.121 14.9731 135.365 14.8619 135.622 14.8018C136.107 14.6906 136.615 14.7592 137.052 14.9949C137.49 15.2305 137.826 15.617 137.998 16.0821C138.107 16.3789 138.143 16.6975 138.103 17.011C138.063 17.3246 137.947 17.6239 137.766 17.8836Z" fill="url(#paint72_linear_501_3020)"/>
<path d="M148.056 25.9755C147.606 26.4707 146.98 26.7714 146.311 26.8137C145.642 26.856 144.983 26.6366 144.474 26.2021C144.15 25.9205 143.903 25.5619 143.756 25.1597C143.604 24.7381 143.563 24.2845 143.637 23.8425C143.711 23.4004 143.897 22.9848 144.179 22.6354C144.39 22.373 144.653 22.1562 144.952 21.998C145.25 21.8399 145.577 21.7438 145.914 21.7154C146.258 21.6836 146.605 21.7223 146.934 21.8291C147.263 21.9358 147.567 22.1084 147.826 22.3363C148.16 22.6227 148.415 22.9892 148.567 23.4013C148.728 23.8357 148.765 24.306 148.675 24.7602C148.585 25.2145 148.37 25.6351 148.056 25.9755Z" fill="url(#paint73_linear_501_3020)"/>
<path d="M153.507 34.4413C153.347 34.2575 153.222 34.0464 153.137 33.8182C152.997 33.4361 152.975 33.0214 153.072 32.6265C153.169 32.2316 153.381 31.8743 153.682 31.5998C153.879 31.4174 154.111 31.2768 154.364 31.1865C154.617 31.0961 154.886 31.0579 155.154 31.074C155.427 31.089 155.694 31.159 155.94 31.2797C156.185 31.4004 156.404 31.5694 156.582 31.7765C156.747 31.9656 156.875 32.1829 156.962 32.4178C157.107 32.8097 157.126 33.237 157.017 33.6403C156.907 34.0435 156.674 34.4028 156.351 34.6679C155.941 35.0074 155.414 35.1737 154.883 35.1313C154.351 35.089 153.858 34.8414 153.507 34.4413Z" fill="url(#paint74_linear_501_3020)"/>
<path d="M160.594 44.3982C160.501 44.2562 160.425 44.1041 160.366 43.945C160.188 43.4504 160.181 42.9106 160.345 42.4113C160.51 41.912 160.837 41.482 161.275 41.1895C161.53 41.0154 161.817 40.8943 162.12 40.8335C162.423 40.7728 162.735 40.7737 163.038 40.836C163.346 40.8978 163.639 41.0212 163.899 41.1988C164.158 41.3763 164.379 41.6044 164.548 41.8693C164.639 42.0177 164.716 42.1748 164.775 42.3384C164.974 42.8796 164.965 43.4749 164.751 44.0101C164.536 44.5452 164.131 44.9826 163.614 45.2382C163.096 45.4938 162.502 45.5496 161.945 45.395C161.389 45.2404 160.909 44.8863 160.598 44.4005L160.594 44.3982Z" fill="url(#paint75_linear_501_3020)"/>
<path d="M169.918 53.5189C169.933 53.5552 169.947 53.5892 169.961 53.6254C170.089 53.9728 170.08 54.356 169.935 54.6967C169.789 55.0374 169.519 55.31 169.179 55.4586C168.826 55.6095 168.427 55.6167 168.068 55.4787C167.709 55.3407 167.419 55.0685 167.258 54.7199C167.241 54.6853 167.226 54.6497 167.212 54.6134C167.089 54.2726 167.097 53.8983 167.236 53.5632C167.374 53.2281 167.632 52.9563 167.96 52.8006C168.133 52.7167 168.321 52.6682 168.514 52.6581C168.706 52.648 168.898 52.6764 169.079 52.7417C169.264 52.8084 169.434 52.9116 169.578 53.0451C169.722 53.1787 169.837 53.3398 169.918 53.5189Z" fill="url(#paint76_linear_501_3020)"/>
<path d="M171.439 66.3083C171.324 65.9027 171.371 65.4682 171.57 65.0965C171.77 64.7248 172.107 64.4451 172.509 64.3165C172.903 64.1932 173.33 64.2263 173.7 64.4091C174.071 64.5919 174.356 64.9102 174.497 65.2977C174.51 65.3317 174.522 65.3679 174.531 65.3996C174.592 65.6042 174.613 65.819 174.59 66.0314C174.567 66.2438 174.503 66.4496 174.399 66.6368C174.296 66.824 174.157 66.9887 173.989 67.1214C173.821 67.2541 173.628 67.3521 173.422 67.4096C173.031 67.515 172.614 67.4712 172.254 67.2869C171.893 67.1026 171.614 66.7909 171.471 66.4126C171.459 66.3784 171.448 66.3436 171.439 66.3083Z" fill="url(#paint77_linear_501_3020)"/>
<path d="M177.063 77.8877C177.09 78.0701 177.081 78.2561 177.036 78.4349C176.991 78.6137 176.91 78.7817 176.799 78.9293C176.688 79.0768 176.549 79.2009 176.39 79.2944C176.23 79.3879 176.054 79.4489 175.871 79.4739C175.554 79.5147 175.233 79.4474 174.96 79.2827C174.687 79.1181 174.478 78.8659 174.367 78.5675C174.335 78.4785 174.311 78.3867 174.297 78.2933C174.25 77.9532 174.331 77.6079 174.523 77.3233C174.716 77.0388 175.007 76.835 175.34 76.7509C175.674 76.6668 176.027 76.7083 176.332 76.8674C176.636 77.0265 176.872 77.2921 176.993 77.6135C177.025 77.7024 177.049 77.7942 177.063 77.8877Z" fill="url(#paint78_linear_501_3020)"/>
<path d="M176.614 91.9551C176.332 91.952 176.058 91.8636 175.827 91.7018C175.597 91.54 175.421 91.3122 175.323 91.0487C175.267 90.8996 175.238 90.7413 175.239 90.5819C175.239 90.2586 175.353 89.9456 175.561 89.6976C175.768 89.4495 176.057 89.2822 176.376 89.225C176.695 89.1677 177.024 89.2241 177.305 89.3844C177.586 89.5446 177.802 89.7984 177.915 90.1015C177.992 90.3102 178.017 90.5343 177.988 90.7549C177.96 90.9754 177.878 91.1857 177.75 91.3678C177.622 91.5499 177.452 91.6985 177.254 91.8007C177.056 91.903 176.836 91.956 176.614 91.9551Z" fill="url(#paint79_linear_501_3020)"/>
<path d="M174.844 103.412C174.786 103.252 174.77 103.08 174.798 102.912C174.826 102.745 174.897 102.587 175.004 102.454C175.111 102.322 175.25 102.219 175.408 102.156C175.566 102.093 175.738 102.071 175.907 102.093C176.102 102.121 176.284 102.205 176.43 102.336C176.577 102.467 176.681 102.639 176.73 102.829C176.778 103.019 176.769 103.219 176.704 103.404C176.638 103.589 176.519 103.75 176.361 103.868C176.258 103.946 176.139 104.002 176.013 104.034C175.887 104.065 175.756 104.071 175.628 104.051C175.452 104.025 175.286 103.951 175.148 103.839C175.01 103.727 174.905 103.579 174.844 103.412Z" fill="url(#paint80_linear_501_3020)"/>
<path d="M91.1468 1.78125C91.2679 2.1133 91.3212 2.46618 91.3035 2.81909C91.288 3.45862 91.0483 4.07249 90.626 4.55392C90.2037 5.03536 89.6257 5.35389 88.9923 5.45412C88.359 5.55435 87.7105 5.42992 87.1597 5.1025C86.6088 4.77508 86.1904 4.26538 85.9772 3.66204C85.8772 3.38847 85.8204 3.10101 85.8091 2.81002C85.7911 2.44903 85.848 2.08821 85.9762 1.75016C86.1044 1.4121 86.3011 1.10409 86.5541 0.845384C86.8123 0.574564 87.1236 0.35973 87.4687 0.214305C87.8137 0.0688798 88.1852 -0.00401003 88.5597 0.00016484C89.1213 -0.000237979 89.6696 0.169965 90.1317 0.488138C90.5939 0.806312 90.948 1.25736 91.1468 1.78125Z" fill="url(#paint81_linear_501_3020)"/>
<path d="M78.7225 3.30175C78.8024 3.96304 78.6345 4.63044 78.2512 5.17578C77.8678 5.72111 77.296 6.10591 76.6456 6.25626C75.9952 6.4066 75.312 6.3119 74.7273 5.99034C74.1427 5.66877 73.6977 5.14301 73.4779 4.51406C73.4241 4.36661 73.3823 4.21504 73.353 4.06086C73.2869 3.71084 73.293 3.35104 73.3712 3.00348C73.4493 2.65592 73.5977 2.32793 73.8073 2.03958C74.094 1.63823 74.4847 1.32217 74.9375 1.12519C75.3903 0.928215 75.8883 0.857723 76.3782 0.921259C76.8681 0.984795 77.3315 1.17997 77.7188 1.48591C78.1061 1.79185 78.4028 2.19705 78.5771 2.6582C78.6529 2.86563 78.7018 3.08192 78.7225 3.30175Z" fill="url(#paint82_linear_501_3020)"/>
<path d="M65.937 5.40234C65.9643 5.47938 65.9892 5.55643 66.0097 5.62894C66.1564 6.20935 66.0738 6.82385 65.779 7.34517C65.4841 7.8665 64.9996 8.25471 64.4257 8.42944C63.8518 8.60417 63.2325 8.55202 62.6961 8.28379C62.1597 8.01556 61.7473 7.55181 61.5442 6.98855L61.5192 6.92057C61.4222 6.62939 61.3854 6.32158 61.4112 6.01581C61.4369 5.71004 61.5247 5.41268 61.6691 5.14176C61.8799 4.74479 62.2006 4.41658 62.593 4.19617C62.9854 3.97576 63.433 3.87242 63.8825 3.89843C64.3321 3.92445 64.7647 4.07873 65.1289 4.34292C65.4931 4.60712 65.7736 4.97012 65.937 5.38874V5.40234Z" fill="url(#paint83_linear_501_3020)"/>
<path d="M55.0095 9.2727L55.0549 9.38827C55.3549 10.1835 55.3355 11.0635 55.0009 11.8449C54.6663 12.6262 54.0422 13.2485 53.2589 13.582C52.4755 13.9154 51.5934 13.9343 50.7965 13.6347C49.9995 13.3351 49.3493 12.7401 48.9813 11.9738C48.9294 11.871 48.8839 11.765 48.8451 11.6566C48.6358 11.0572 48.6036 10.4105 48.7524 9.79341C48.9011 9.17634 49.2245 8.61493 49.6841 8.17605C50.1436 7.73717 50.7199 7.43933 51.3443 7.31798C51.9688 7.19663 52.615 7.2569 53.206 7.49161C53.6118 7.65129 53.9809 7.89148 54.2909 8.19763C54.6009 8.50378 54.8453 8.86952 55.0095 9.2727Z" fill="url(#paint84_linear_501_3020)"/>
<path d="M39.2758 13.9316C39.6226 13.7095 40.0109 13.5598 40.4173 13.4917C40.8237 13.4235 41.2398 13.4383 41.6403 13.5351C42.0327 13.6264 42.4026 13.7962 42.7274 14.0341C43.0522 14.2721 43.3253 14.5733 43.5301 14.9196C43.9501 15.603 44.0841 16.4237 43.9031 17.2047C43.7221 17.9857 43.2405 18.6644 42.5624 19.0945C41.8843 19.5245 41.0639 19.6713 40.2782 19.5033C39.4925 19.3352 38.8046 18.8658 38.3627 18.1963C38.2246 17.9928 38.111 17.7737 38.0243 17.5437C37.7848 16.8898 37.7786 16.1736 38.0065 15.5157C38.2345 14.8578 38.6827 14.2984 39.2758 13.9316Z" fill="url(#paint85_linear_501_3020)"/>
<path d="M32.5298 22.5425C32.6878 22.7361 32.8128 22.9543 32.9001 23.1883C33.0786 23.6709 33.0825 24.2005 32.9112 24.6857C32.7399 25.1709 32.4041 25.5811 31.9618 25.8456C31.5195 26.11 30.9985 26.212 30.4889 26.1339C29.9792 26.0559 29.5129 25.8027 29.1705 25.4181C28.9825 25.2109 28.8367 24.9692 28.7412 24.7065C28.6158 24.3562 28.5806 23.98 28.6389 23.6126C28.6972 23.2452 28.847 22.8982 29.0747 22.6036C29.3024 22.309 29.6006 22.0762 29.942 21.9265C30.2834 21.7769 30.657 21.7152 31.0285 21.7471C31.3196 21.7717 31.6027 21.8549 31.8607 21.9916C32.1187 22.1283 32.3463 22.3157 32.5298 22.5425Z" fill="url(#paint86_linear_501_3020)"/>
<path d="M21.7954 30.58C22.0848 30.5626 22.3748 30.6035 22.648 30.7005C22.9212 30.7974 23.172 30.9484 23.3854 31.1443C23.6494 31.3846 23.8519 31.6845 23.9759 32.019C24.144 32.4733 24.1565 32.9704 24.0114 33.4325C23.8663 33.8947 23.5719 34.2959 23.174 34.5734C22.7762 34.8509 22.2975 34.9892 21.8126 34.9665C21.3277 34.9438 20.864 34.7616 20.4939 34.4481C20.2 34.2052 19.9765 33.8884 19.8466 33.5304C19.73 33.2077 19.6906 32.8622 19.7315 32.5216C19.7724 32.181 19.8925 31.8546 20.0823 31.5685C20.272 31.2823 20.5261 31.0444 20.8243 30.8736C21.1225 30.7028 21.4566 30.6038 21.7999 30.5846L21.7954 30.58Z" fill="url(#paint87_linear_501_3020)"/>
<path d="M15.3856 41.1941C15.8058 41.4669 16.1001 41.8951 16.2039 42.3845C16.3076 42.8738 16.2122 43.3842 15.9387 43.8034C15.6652 44.2226 15.236 44.5162 14.7455 44.6197C14.255 44.7232 13.7434 44.628 13.3232 44.3552C12.9695 44.1363 12.6999 43.8051 12.5578 43.4148C12.4583 43.138 12.4242 42.8422 12.4581 42.5501C12.4919 42.2581 12.5929 41.9778 12.7531 41.7311C12.8902 41.5205 13.0681 41.3395 13.2764 41.1986C13.4847 41.0577 13.7192 40.9599 13.966 40.9108C14.2096 40.8606 14.4608 40.8598 14.7047 40.9084C14.9486 40.9571 15.1802 41.0542 15.3856 41.1941Z" fill="url(#paint88_linear_501_3020)"/>
<path d="M9.83898 53.1337C9.91651 53.3433 9.95162 53.5662 9.94226 53.7895C9.9329 54.0128 9.87927 54.2319 9.78447 54.4344C9.59295 54.8387 9.25037 55.1521 8.83009 55.3076C8.40981 55.463 7.94523 55.4481 7.53583 55.266C7.32701 55.1757 7.13878 55.0439 6.98259 54.8788C6.8264 54.7136 6.70552 54.5185 6.62729 54.3052C6.54972 54.0939 6.51489 53.8693 6.52481 53.6444C6.53473 53.4196 6.5892 53.1989 6.68508 52.9952C6.78096 52.7915 6.91634 52.6087 7.08342 52.4574C7.25049 52.3062 7.44594 52.1895 7.65848 52.114C7.86986 52.0382 8.0943 52.0053 8.31861 52.0174C8.54291 52.0294 8.76253 52.0862 8.96451 52.1842C9.3694 52.3742 9.68339 52.7152 9.83898 53.1337Z" fill="url(#paint89_linear_501_3020)"/>
<path d="M4.64893 65.0892C4.7276 65.3221 4.71199 65.5764 4.60542 65.798C4.49886 66.0196 4.30977 66.1909 4.07844 66.2754C3.84711 66.3599 3.59185 66.351 3.36705 66.2505C3.14225 66.1499 2.96569 65.9658 2.875 65.7373C2.8033 65.5453 2.79691 65.3351 2.85682 65.1391C2.91426 64.9497 3.02998 64.7831 3.18757 64.663C3.34516 64.5429 3.53663 64.4753 3.73487 64.4698C3.9331 64.4643 4.12806 64.5211 4.29211 64.6323C4.45617 64.7435 4.581 64.9033 4.64893 65.0892Z" fill="url(#paint90_linear_501_3020)"/>
<path d="M1.94828 77.2872C2.02079 77.5326 1.99661 77.7965 1.88065 78.0247C1.7647 78.253 1.56572 78.4285 1.32442 78.5153C1.08311 78.6021 0.817692 78.5937 0.582398 78.4918C0.347104 78.3898 0.1597 78.2021 0.058505 77.967C0.00306117 77.8085 -0.0132911 77.6391 0.0108154 77.473C0.0301925 77.3419 0.0754564 77.2159 0.144 77.1023C0.212543 76.9888 0.303003 76.8899 0.410119 76.8115C0.517235 76.7331 0.63888 76.6767 0.768014 76.6455C0.897147 76.6144 1.0312 76.6091 1.1624 76.63C1.3405 76.659 1.50748 76.7353 1.64578 76.8509C1.78408 76.9666 1.88857 77.1173 1.94828 77.2872Z" fill="url(#paint91_linear_501_3020)"/>
<defs>
<linearGradient id="paint0_linear_501_3020" x1="59.2456" y1="144.001" x2="38.3546" y2="-38.0685" gradientUnits="userSpaceOnUse">
<stop stop-color="#5EFF8B"/>
<stop offset="1" stop-color="#2E79F6"/>
</linearGradient>
<linearGradient id="paint1_linear_501_3020" x1="59.2456" y1="144.001" x2="38.3546" y2="-38.0685" gradientUnits="userSpaceOnUse">
<stop stop-color="#5EFF8B"/>
<stop offset="1" stop-color="#2E79F6"/>
</linearGradient>
<linearGradient id="paint2_linear_501_3020" x1="59.2456" y1="144.001" x2="38.3546" y2="-38.0685" gradientUnits="userSpaceOnUse">
<stop stop-color="#5EFF8B"/>
<stop offset="1" stop-color="#2E79F6"/>
</linearGradient>
<linearGradient id="paint3_linear_501_3020" x1="59.2456" y1="144.001" x2="38.3546" y2="-38.0685" gradientUnits="userSpaceOnUse">
<stop stop-color="#5EFF8B"/>
<stop offset="1" stop-color="#2E79F6"/>
</linearGradient>
<linearGradient id="paint4_linear_501_3020" x1="59.2456" y1="144.001" x2="38.3546" y2="-38.0685" gradientUnits="userSpaceOnUse">
<stop stop-color="#5EFF8B"/>
<stop offset="1" stop-color="#2E79F6"/>
</linearGradient>
<linearGradient id="paint5_linear_501_3020" x1="59.2456" y1="144.001" x2="38.3546" y2="-38.0685" gradientUnits="userSpaceOnUse">
<stop stop-color="#5EFF8B"/>
<stop offset="1" stop-color="#2E79F6"/>
</linearGradient>
<linearGradient id="paint6_linear_501_3020" x1="59.2456" y1="144.001" x2="38.3546" y2="-38.0685" gradientUnits="userSpaceOnUse">
<stop stop-color="#5EFF8B"/>
<stop offset="1" stop-color="#2E79F6"/>
</linearGradient>
<linearGradient id="paint7_linear_501_3020" x1="59.2456" y1="144.001" x2="38.3546" y2="-38.0685" gradientUnits="userSpaceOnUse">
<stop stop-color="#5EFF8B"/>
<stop offset="1" stop-color="#2E79F6"/>
</linearGradient>
<linearGradient id="paint8_linear_501_3020" x1="59.2456" y1="144.001" x2="38.3546" y2="-38.0685" gradientUnits="userSpaceOnUse">
<stop stop-color="#5EFF8B"/>
<stop offset="1" stop-color="#2E79F6"/>
</linearGradient>
<linearGradient id="paint9_linear_501_3020" x1="59.2456" y1="144.001" x2="38.3546" y2="-38.0685" gradientUnits="userSpaceOnUse">
<stop stop-color="#5EFF8B"/>
<stop offset="1" stop-color="#2E79F6"/>
</linearGradient>
<linearGradient id="paint10_linear_501_3020" x1="59.2456" y1="144.001" x2="38.3546" y2="-38.0685" gradientUnits="userSpaceOnUse">
<stop stop-color="#5EFF8B"/>
<stop offset="1" stop-color="#2E79F6"/>
</linearGradient>
<linearGradient id="paint11_linear_501_3020" x1="59.2456" y1="144.001" x2="38.3546" y2="-38.0685" gradientUnits="userSpaceOnUse">
<stop stop-color="#5EFF8B"/>
<stop offset="1" stop-color="#2E79F6"/>
</linearGradient>
<linearGradient id="paint12_linear_501_3020" x1="59.2456" y1="144.001" x2="38.3546" y2="-38.0685" gradientUnits="userSpaceOnUse">
<stop stop-color="#5EFF8B"/>
<stop offset="1" stop-color="#2E79F6"/>
</linearGradient>
<linearGradient id="paint13_linear_501_3020" x1="59.2456" y1="144.001" x2="38.3546" y2="-38.0685" gradientUnits="userSpaceOnUse">
<stop stop-color="#5EFF8B"/>
<stop offset="1" stop-color="#2E79F6"/>
</linearGradient>
<linearGradient id="paint14_linear_501_3020" x1="59.2456" y1="144.001" x2="38.3546" y2="-38.0685" gradientUnits="userSpaceOnUse">
<stop stop-color="#5EFF8B"/>
<stop offset="1" stop-color="#2E79F6"/>
</linearGradient>
<linearGradient id="paint15_linear_501_3020" x1="59.2456" y1="144.001" x2="38.3546" y2="-38.0685" gradientUnits="userSpaceOnUse">
<stop stop-color="#5EFF8B"/>
<stop offset="1" stop-color="#2E79F6"/>
</linearGradient>
<linearGradient id="paint16_linear_501_3020" x1="59.2456" y1="144.001" x2="38.3546" y2="-38.0685" gradientUnits="userSpaceOnUse">
<stop stop-color="#5EFF8B"/>
<stop offset="1" stop-color="#2E79F6"/>
</linearGradient>
<linearGradient id="paint17_linear_501_3020" x1="59.2456" y1="144.001" x2="38.3546" y2="-38.0685" gradientUnits="userSpaceOnUse">
<stop stop-color="#5EFF8B"/>
<stop offset="1" stop-color="#2E79F6"/>
</linearGradient>
<linearGradient id="paint18_linear_501_3020" x1="59.2456" y1="144.001" x2="38.3546" y2="-38.0685" gradientUnits="userSpaceOnUse">
<stop stop-color="#5EFF8B"/>
<stop offset="1" stop-color="#2E79F6"/>
</linearGradient>
<linearGradient id="paint19_linear_501_3020" x1="59.2456" y1="144.001" x2="38.3546" y2="-38.0685" gradientUnits="userSpaceOnUse">
<stop stop-color="#5EFF8B"/>
<stop offset="1" stop-color="#2E79F6"/>
</linearGradient>
<linearGradient id="paint20_linear_501_3020" x1="59.2456" y1="144.001" x2="38.3546" y2="-38.0685" gradientUnits="userSpaceOnUse">
<stop stop-color="#5EFF8B"/>
<stop offset="1" stop-color="#2E79F6"/>
</linearGradient>
<linearGradient id="paint21_linear_501_3020" x1="59.2456" y1="144.001" x2="38.3546" y2="-38.0685" gradientUnits="userSpaceOnUse">
<stop stop-color="#5EFF8B"/>
<stop offset="1" stop-color="#2E79F6"/>
</linearGradient>
<linearGradient id="paint22_linear_501_3020" x1="59.2456" y1="144.001" x2="38.3546" y2="-38.0685" gradientUnits="userSpaceOnUse">
<stop stop-color="#5EFF8B"/>
<stop offset="1" stop-color="#2E79F6"/>
</linearGradient>
<linearGradient id="paint23_linear_501_3020" x1="59.2456" y1="144.001" x2="38.3546" y2="-38.0685" gradientUnits="userSpaceOnUse">
<stop stop-color="#5EFF8B"/>
<stop offset="1" stop-color="#2E79F6"/>
</linearGradient>
<linearGradient id="paint24_linear_501_3020" x1="59.2456" y1="144.001" x2="38.3546" y2="-38.0685" gradientUnits="userSpaceOnUse">
<stop stop-color="#5EFF8B"/>
<stop offset="1" stop-color="#2E79F6"/>
</linearGradient>
<linearGradient id="paint25_linear_501_3020" x1="59.2456" y1="144.001" x2="38.3546" y2="-38.0685" gradientUnits="userSpaceOnUse">
<stop stop-color="#5EFF8B"/>
<stop offset="1" stop-color="#2E79F6"/>
</linearGradient>
<linearGradient id="paint26_linear_501_3020" x1="59.2456" y1="144.001" x2="38.3546" y2="-38.0685" gradientUnits="userSpaceOnUse">
<stop stop-color="#5EFF8B"/>
<stop offset="1" stop-color="#2E79F6"/>
</linearGradient>
<linearGradient id="paint27_linear_501_3020" x1="59.2456" y1="144.001" x2="38.3546" y2="-38.0685" gradientUnits="userSpaceOnUse">
<stop stop-color="#5EFF8B"/>
<stop offset="1" stop-color="#2E79F6"/>
</linearGradient>
<linearGradient id="paint28_linear_501_3020" x1="59.2456" y1="144.001" x2="38.3546" y2="-38.0685" gradientUnits="userSpaceOnUse">
<stop stop-color="#5EFF8B"/>
<stop offset="1" stop-color="#2E79F6"/>
</linearGradient>
<linearGradient id="paint29_linear_501_3020" x1="59.2456" y1="144.001" x2="38.3546" y2="-38.0685" gradientUnits="userSpaceOnUse">
<stop stop-color="#5EFF8B"/>
<stop offset="1" stop-color="#2E79F6"/>
</linearGradient>
<linearGradient id="paint30_linear_501_3020" x1="59.2456" y1="144.001" x2="38.3546" y2="-38.0685" gradientUnits="userSpaceOnUse">
<stop stop-color="#5EFF8B"/>
<stop offset="1" stop-color="#2E79F6"/>
</linearGradient>
<linearGradient id="paint31_linear_501_3020" x1="59.2456" y1="144.001" x2="38.3546" y2="-38.0685" gradientUnits="userSpaceOnUse">
<stop stop-color="#5EFF8B"/>
<stop offset="1" stop-color="#2E79F6"/>
</linearGradient>
<linearGradient id="paint32_linear_501_3020" x1="59.2456" y1="144.001" x2="38.3546" y2="-38.0685" gradientUnits="userSpaceOnUse">
<stop stop-color="#5EFF8B"/>
<stop offset="1" stop-color="#2E79F6"/>
</linearGradient>
<linearGradient id="paint33_linear_501_3020" x1="59.2456" y1="144.001" x2="38.3546" y2="-38.0685" gradientUnits="userSpaceOnUse">
<stop stop-color="#5EFF8B"/>
<stop offset="1" stop-color="#2E79F6"/>
</linearGradient>
<linearGradient id="paint34_linear_501_3020" x1="59.2456" y1="144.001" x2="38.3546" y2="-38.0685" gradientUnits="userSpaceOnUse">
<stop stop-color="#5EFF8B"/>
<stop offset="1" stop-color="#2E79F6"/>
</linearGradient>
<linearGradient id="paint35_linear_501_3020" x1="59.2456" y1="144.001" x2="38.3546" y2="-38.0685" gradientUnits="userSpaceOnUse">
<stop stop-color="#5EFF8B"/>
<stop offset="1" stop-color="#2E79F6"/>
</linearGradient>
<linearGradient id="paint36_linear_501_3020" x1="59.2456" y1="144.001" x2="38.3546" y2="-38.0685" gradientUnits="userSpaceOnUse">
<stop stop-color="#5EFF8B"/>
<stop offset="1" stop-color="#2E79F6"/>
</linearGradient>
<linearGradient id="paint37_linear_501_3020" x1="59.2456" y1="144.001" x2="38.3546" y2="-38.0685" gradientUnits="userSpaceOnUse">
<stop stop-color="#5EFF8B"/>
<stop offset="1" stop-color="#2E79F6"/>
</linearGradient>
<linearGradient id="paint38_linear_501_3020" x1="59.2456" y1="144.001" x2="38.3546" y2="-38.0685" gradientUnits="userSpaceOnUse">
<stop stop-color="#5EFF8B"/>
<stop offset="1" stop-color="#2E79F6"/>
</linearGradient>
<linearGradient id="paint39_linear_501_3020" x1="59.2456" y1="144.001" x2="38.3546" y2="-38.0685" gradientUnits="userSpaceOnUse">
<stop stop-color="#5EFF8B"/>
<stop offset="1" stop-color="#2E79F6"/>
</linearGradient>
<linearGradient id="paint40_linear_501_3020" x1="59.2456" y1="144.001" x2="38.3546" y2="-38.0685" gradientUnits="userSpaceOnUse">
<stop stop-color="#5EFF8B"/>
<stop offset="1" stop-color="#2E79F6"/>
</linearGradient>
<linearGradient id="paint41_linear_501_3020" x1="59.2456" y1="144.001" x2="38.3546" y2="-38.0685" gradientUnits="userSpaceOnUse">
<stop stop-color="#5EFF8B"/>
<stop offset="1" stop-color="#2E79F6"/>
</linearGradient>
<linearGradient id="paint42_linear_501_3020" x1="59.2456" y1="144.001" x2="38.3546" y2="-38.0685" gradientUnits="userSpaceOnUse">
<stop stop-color="#5EFF8B"/>
<stop offset="1" stop-color="#2E79F6"/>
</linearGradient>
<linearGradient id="paint43_linear_501_3020" x1="59.2456" y1="144.001" x2="38.3546" y2="-38.0685" gradientUnits="userSpaceOnUse">
<stop stop-color="#5EFF8B"/>
<stop offset="1" stop-color="#2E79F6"/>
</linearGradient>
<linearGradient id="paint44_linear_501_3020" x1="59.2456" y1="144.001" x2="38.3546" y2="-38.0685" gradientUnits="userSpaceOnUse">
<stop stop-color="#5EFF8B"/>
<stop offset="1" stop-color="#2E79F6"/>
</linearGradient>
<linearGradient id="paint45_linear_501_3020" x1="59.2456" y1="144.001" x2="38.3546" y2="-38.0685" gradientUnits="userSpaceOnUse">
<stop stop-color="#5EFF8B"/>
<stop offset="1" stop-color="#2E79F6"/>
</linearGradient>
<linearGradient id="paint46_linear_501_3020" x1="59.2456" y1="144.001" x2="38.3546" y2="-38.0685" gradientUnits="userSpaceOnUse">
<stop stop-color="#5EFF8B"/>
<stop offset="1" stop-color="#2E79F6"/>
</linearGradient>
<linearGradient id="paint47_linear_501_3020" x1="59.2456" y1="144.001" x2="38.3546" y2="-38.0685" gradientUnits="userSpaceOnUse">
<stop stop-color="#5EFF8B"/>
<stop offset="1" stop-color="#2E79F6"/>
</linearGradient>
<linearGradient id="paint48_linear_501_3020" x1="59.2456" y1="144.001" x2="38.3546" y2="-38.0685" gradientUnits="userSpaceOnUse">
<stop stop-color="#5EFF8B"/>
<stop offset="1" stop-color="#2E79F6"/>
</linearGradient>
<linearGradient id="paint49_linear_501_3020" x1="59.2456" y1="144.001" x2="38.3546" y2="-38.0685" gradientUnits="userSpaceOnUse">
<stop stop-color="#5EFF8B"/>
<stop offset="1" stop-color="#2E79F6"/>
</linearGradient>
<linearGradient id="paint50_linear_501_3020" x1="59.2456" y1="144.001" x2="38.3546" y2="-38.0685" gradientUnits="userSpaceOnUse">
<stop stop-color="#5EFF8B"/>
<stop offset="1" stop-color="#2E79F6"/>
</linearGradient>
<linearGradient id="paint51_linear_501_3020" x1="59.2456" y1="144.001" x2="38.3546" y2="-38.0685" gradientUnits="userSpaceOnUse">
<stop stop-color="#5EFF8B"/>
<stop offset="1" stop-color="#2E79F6"/>
</linearGradient>
<linearGradient id="paint52_linear_501_3020" x1="59.2456" y1="144.001" x2="38.3546" y2="-38.0685" gradientUnits="userSpaceOnUse">
<stop stop-color="#5EFF8B"/>
<stop offset="1" stop-color="#2E79F6"/>
</linearGradient>
<linearGradient id="paint53_linear_501_3020" x1="59.2456" y1="144.001" x2="38.3546" y2="-38.0685" gradientUnits="userSpaceOnUse">
<stop stop-color="#5EFF8B"/>
<stop offset="1" stop-color="#2E79F6"/>
</linearGradient>
<linearGradient id="paint54_linear_501_3020" x1="59.2456" y1="144.001" x2="38.3546" y2="-38.0685" gradientUnits="userSpaceOnUse">
<stop stop-color="#5EFF8B"/>
<stop offset="1" stop-color="#2E79F6"/>
</linearGradient>
<linearGradient id="paint55_linear_501_3020" x1="59.2456" y1="144.001" x2="38.3546" y2="-38.0685" gradientUnits="userSpaceOnUse">
<stop stop-color="#5EFF8B"/>
<stop offset="1" stop-color="#2E79F6"/>
</linearGradient>
<linearGradient id="paint56_linear_501_3020" x1="59.2456" y1="144.001" x2="38.3546" y2="-38.0685" gradientUnits="userSpaceOnUse">
<stop stop-color="#5EFF8B"/>
<stop offset="1" stop-color="#2E79F6"/>
</linearGradient>
<linearGradient id="paint57_linear_501_3020" x1="59.2456" y1="144.001" x2="38.3546" y2="-38.0685" gradientUnits="userSpaceOnUse">
<stop stop-color="#5EFF8B"/>
<stop offset="1" stop-color="#2E79F6"/>
</linearGradient>
<linearGradient id="paint58_linear_501_3020" x1="59.2456" y1="144.001" x2="38.3546" y2="-38.0685" gradientUnits="userSpaceOnUse">
<stop stop-color="#5EFF8B"/>
<stop offset="1" stop-color="#2E79F6"/>
</linearGradient>
<linearGradient id="paint59_linear_501_3020" x1="59.2456" y1="144.001" x2="38.3546" y2="-38.0685" gradientUnits="userSpaceOnUse">
<stop stop-color="#5EFF8B"/>
<stop offset="1" stop-color="#2E79F6"/>
</linearGradient>
<linearGradient id="paint60_linear_501_3020" x1="59.2456" y1="144.001" x2="38.3546" y2="-38.0685" gradientUnits="userSpaceOnUse">
<stop stop-color="#5EFF8B"/>
<stop offset="1" stop-color="#2E79F6"/>
</linearGradient>
<linearGradient id="paint61_linear_501_3020" x1="59.2456" y1="144.001" x2="38.3546" y2="-38.0685" gradientUnits="userSpaceOnUse">
<stop stop-color="#5EFF8B"/>
<stop offset="1" stop-color="#2E79F6"/>
</linearGradient>
<linearGradient id="paint62_linear_501_3020" x1="59.2456" y1="144.001" x2="38.3546" y2="-38.0685" gradientUnits="userSpaceOnUse">
<stop stop-color="#5EFF8B"/>
<stop offset="1" stop-color="#2E79F6"/>
</linearGradient>
<linearGradient id="paint63_linear_501_3020" x1="59.2456" y1="144.001" x2="38.3546" y2="-38.0685" gradientUnits="userSpaceOnUse">
<stop stop-color="#5EFF8B"/>
<stop offset="1" stop-color="#2E79F6"/>
</linearGradient>
<linearGradient id="paint64_linear_501_3020" x1="59.2456" y1="144.001" x2="38.3546" y2="-38.0685" gradientUnits="userSpaceOnUse">
<stop stop-color="#5EFF8B"/>
<stop offset="1" stop-color="#2E79F6"/>
</linearGradient>
<linearGradient id="paint65_linear_501_3020" x1="59.2456" y1="144.001" x2="38.3546" y2="-38.0685" gradientUnits="userSpaceOnUse">
<stop stop-color="#5EFF8B"/>
<stop offset="1" stop-color="#2E79F6"/>
</linearGradient>
<linearGradient id="paint66_linear_501_3020" x1="59.2456" y1="144.001" x2="38.3546" y2="-38.0685" gradientUnits="userSpaceOnUse">
<stop stop-color="#5EFF8B"/>
<stop offset="1" stop-color="#2E79F6"/>
</linearGradient>
<linearGradient id="paint67_linear_501_3020" x1="59.2456" y1="144.001" x2="38.3546" y2="-38.0685" gradientUnits="userSpaceOnUse">
<stop stop-color="#5EFF8B"/>
<stop offset="1" stop-color="#2E79F6"/>
</linearGradient>
<linearGradient id="paint68_linear_501_3020" x1="59.2456" y1="144.001" x2="38.3546" y2="-38.0685" gradientUnits="userSpaceOnUse">
<stop stop-color="#5EFF8B"/>
<stop offset="1" stop-color="#2E79F6"/>
</linearGradient>
<linearGradient id="paint69_linear_501_3020" x1="59.2456" y1="144.001" x2="38.3546" y2="-38.0685" gradientUnits="userSpaceOnUse">
<stop stop-color="#5EFF8B"/>
<stop offset="1" stop-color="#2E79F6"/>
</linearGradient>
<linearGradient id="paint70_linear_501_3020" x1="59.2456" y1="144.001" x2="38.3546" y2="-38.0685" gradientUnits="userSpaceOnUse">
<stop stop-color="#5EFF8B"/>
<stop offset="1" stop-color="#2E79F6"/>
</linearGradient>
<linearGradient id="paint71_linear_501_3020" x1="59.2456" y1="144.001" x2="38.3546" y2="-38.0685" gradientUnits="userSpaceOnUse">
<stop stop-color="#5EFF8B"/>
<stop offset="1" stop-color="#2E79F6"/>
</linearGradient>
<linearGradient id="paint72_linear_501_3020" x1="59.2456" y1="144.001" x2="38.3546" y2="-38.0685" gradientUnits="userSpaceOnUse">
<stop stop-color="#5EFF8B"/>
<stop offset="1" stop-color="#2E79F6"/>
</linearGradient>
<linearGradient id="paint73_linear_501_3020" x1="59.2456" y1="144.001" x2="38.3546" y2="-38.0685" gradientUnits="userSpaceOnUse">
<stop stop-color="#5EFF8B"/>
<stop offset="1" stop-color="#2E79F6"/>
</linearGradient>
<linearGradient id="paint74_linear_501_3020" x1="59.2456" y1="144.001" x2="38.3546" y2="-38.0685" gradientUnits="userSpaceOnUse">
<stop stop-color="#5EFF8B"/>
<stop offset="1" stop-color="#2E79F6"/>
</linearGradient>
<linearGradient id="paint75_linear_501_3020" x1="59.2456" y1="144.001" x2="38.3546" y2="-38.0685" gradientUnits="userSpaceOnUse">
<stop stop-color="#5EFF8B"/>
<stop offset="1" stop-color="#2E79F6"/>
</linearGradient>
<linearGradient id="paint76_linear_501_3020" x1="59.2456" y1="144.001" x2="38.3546" y2="-38.0685" gradientUnits="userSpaceOnUse">
<stop stop-color="#5EFF8B"/>
<stop offset="1" stop-color="#2E79F6"/>
</linearGradient>
<linearGradient id="paint77_linear_501_3020" x1="59.2456" y1="144.001" x2="38.3546" y2="-38.0685" gradientUnits="userSpaceOnUse">
<stop stop-color="#5EFF8B"/>
<stop offset="1" stop-color="#2E79F6"/>
</linearGradient>
<linearGradient id="paint78_linear_501_3020" x1="59.2456" y1="144.001" x2="38.3546" y2="-38.0685" gradientUnits="userSpaceOnUse">
<stop stop-color="#5EFF8B"/>
<stop offset="1" stop-color="#2E79F6"/>
</linearGradient>
<linearGradient id="paint79_linear_501_3020" x1="59.2456" y1="144.001" x2="38.3546" y2="-38.0685" gradientUnits="userSpaceOnUse">
<stop stop-color="#5EFF8B"/>
<stop offset="1" stop-color="#2E79F6"/>
</linearGradient>
<linearGradient id="paint80_linear_501_3020" x1="59.2456" y1="144.001" x2="38.3546" y2="-38.0685" gradientUnits="userSpaceOnUse">
<stop stop-color="#5EFF8B"/>
<stop offset="1" stop-color="#2E79F6"/>
</linearGradient>
<linearGradient id="paint81_linear_501_3020" x1="59.2456" y1="144.001" x2="38.3546" y2="-38.0685" gradientUnits="userSpaceOnUse">
<stop stop-color="#5EFF8B"/>
<stop offset="1" stop-color="#2E79F6"/>
</linearGradient>
<linearGradient id="paint82_linear_501_3020" x1="59.2456" y1="144.001" x2="38.3546" y2="-38.0685" gradientUnits="userSpaceOnUse">
<stop stop-color="#5EFF8B"/>
<stop offset="1" stop-color="#2E79F6"/>
</linearGradient>
<linearGradient id="paint83_linear_501_3020" x1="59.2456" y1="144.001" x2="38.3546" y2="-38.0685" gradientUnits="userSpaceOnUse">
<stop stop-color="#5EFF8B"/>
<stop offset="1" stop-color="#2E79F6"/>
</linearGradient>
<linearGradient id="paint84_linear_501_3020" x1="59.2456" y1="144.001" x2="38.3546" y2="-38.0685" gradientUnits="userSpaceOnUse">
<stop stop-color="#5EFF8B"/>
<stop offset="1" stop-color="#2E79F6"/>
</linearGradient>
<linearGradient id="paint85_linear_501_3020" x1="59.2456" y1="144.001" x2="38.3546" y2="-38.0685" gradientUnits="userSpaceOnUse">
<stop stop-color="#5EFF8B"/>
<stop offset="1" stop-color="#2E79F6"/>
</linearGradient>
<linearGradient id="paint86_linear_501_3020" x1="59.2456" y1="144.001" x2="38.3546" y2="-38.0685" gradientUnits="userSpaceOnUse">
<stop stop-color="#5EFF8B"/>
<stop offset="1" stop-color="#2E79F6"/>
</linearGradient>
<linearGradient id="paint87_linear_501_3020" x1="59.2456" y1="144.001" x2="38.3546" y2="-38.0685" gradientUnits="userSpaceOnUse">
<stop stop-color="#5EFF8B"/>
<stop offset="1" stop-color="#2E79F6"/>
</linearGradient>
<linearGradient id="paint88_linear_501_3020" x1="59.2456" y1="144.001" x2="38.3546" y2="-38.0685" gradientUnits="userSpaceOnUse">
<stop stop-color="#5EFF8B"/>
<stop offset="1" stop-color="#2E79F6"/>
</linearGradient>
<linearGradient id="paint89_linear_501_3020" x1="59.2456" y1="144.001" x2="38.3546" y2="-38.0685" gradientUnits="userSpaceOnUse">
<stop stop-color="#5EFF8B"/>
<stop offset="1" stop-color="#2E79F6"/>
</linearGradient>
<linearGradient id="paint90_linear_501_3020" x1="59.2456" y1="144.001" x2="38.3546" y2="-38.0685" gradientUnits="userSpaceOnUse">
<stop stop-color="#5EFF8B"/>
<stop offset="1" stop-color="#2E79F6"/>
</linearGradient>
<linearGradient id="paint91_linear_501_3020" x1="59.2456" y1="144.001" x2="38.3546" y2="-38.0685" gradientUnits="userSpaceOnUse">
<stop stop-color="#5EFF8B"/>
<stop offset="1" stop-color="#2E79F6"/>
</linearGradient>
</defs>
</svg>
