<svg width="19" height="19" viewBox="0 0 19 19" fill="none" xmlns="http://www.w3.org/2000/svg">
<path d="M10.0984 11.229L14.6299 6.69745C14.7408 6.58659 14.8911 6.52431 15.0479 6.52431C15.2047 6.52431 15.355 6.58659 15.4659 6.69745C15.5768 6.80831 15.639 6.95867 15.639 7.11545C15.639 7.27223 15.5768 7.42259 15.4659 7.53345L9.98441 13.0149C9.8569 13.138 9.68661 13.2068 9.50941 13.2068C9.3322 13.2068 9.16191 13.138 9.03441 13.0149L3.53391 7.54295C3.47901 7.48806 3.43547 7.42289 3.40576 7.35117C3.37606 7.27945 3.36076 7.20258 3.36076 7.12495C3.36076 7.04732 3.37606 6.97045 3.40576 6.89873C3.43547 6.82701 3.47901 6.76184 3.53391 6.70695C3.5888 6.65206 3.65397 6.60851 3.72569 6.57881C3.79741 6.5491 3.87428 6.53381 3.95191 6.53381C4.02954 6.53381 4.10641 6.5491 4.17813 6.57881C4.24985 6.60851 4.31501 6.65206 4.36991 6.70695L8.90141 11.2384V2.06145C8.89072 1.97717 8.89811 1.89159 8.92306 1.81039C8.94801 1.72918 8.98997 1.65423 9.04613 1.59049C9.1023 1.52676 9.17139 1.47571 9.24881 1.44075C9.32623 1.40578 9.41021 1.3877 9.49516 1.3877C9.58011 1.3877 9.66408 1.40578 9.7415 1.44075C9.81892 1.47571 9.88801 1.52676 9.94418 1.59049C10.0003 1.65423 10.0423 1.72918 10.0673 1.81039C10.0922 1.89159 10.0996 1.97717 10.0889 2.06145L10.0984 11.229ZM2.84991 16.7485C2.70536 16.7301 2.57247 16.6597 2.47614 16.5504C2.37981 16.4411 2.32666 16.3004 2.32666 16.1547C2.32666 16.009 2.37981 15.8683 2.47614 15.759C2.57247 15.6497 2.70536 15.5793 2.84991 15.561H16.1499C16.2944 15.5793 16.4273 15.6497 16.5237 15.759C16.62 15.8683 16.6732 16.009 16.6732 16.1547C16.6732 16.3004 16.62 16.4411 16.5237 16.5504C16.4273 16.6597 16.2944 16.7301 16.1499 16.7485H2.84991Z" fill="#0047BA"/>
</svg>
