<svg width="150" height="110" viewBox="0 0 150 110" fill="none" xmlns="http://www.w3.org/2000/svg">
<path d="M49.5283 30.3238L74.5727 24.814C74.8808 24.7463 75.2005 24.7523 75.5057 24.8317L100.595 31.355C101.492 31.5881 102.111 32.4062 102.092 33.3323L101.591 57.3574C101.586 57.6184 101.529 57.8785 101.423 58.117C94.2705 74.1869 81.0148 81.9534 74.6212 84.0858C74.1926 84.2287 73.7263 84.2019 73.3102 84.0262C57.9852 77.5546 50.1952 64.9897 48.0674 59.1449C47.9917 58.9371 47.958 58.723 47.958 58.5018V32.2771C47.958 31.3381 48.6112 30.5256 49.5283 30.3238Z" fill="url(#paint0_linear_1348_13345)" fill-opacity="0.3"/>
<path d="M102.148 27.9906L75.2675 22.0791C74.7311 21.9736 74.1793 21.9736 73.643 22.0791L46.7628 27.9906C46.0709 28.0988 45.4385 28.4449 44.9744 28.9694C44.5104 29.4938 44.2438 30.1637 44.2207 30.8636V54.4947C44.2207 63.2642 49.7712 71.1763 58.7965 78.1408C61.8567 80.4784 65.09 82.5803 68.4685 84.4284L72.9811 86.6847C73.4553 86.8926 73.9675 87 74.4853 87C75.0031 87 75.5153 86.8926 75.9895 86.6847C77.4937 85.9927 78.9979 85.1805 80.4269 84.4284C83.8004 82.5831 87.0331 80.4916 90.099 78.1709C99.1242 71.2064 104.69 63.3093 104.69 54.5248V30.8636C104.667 30.1637 104.4 29.4938 103.936 28.9694C103.472 28.4449 102.84 28.0988 102.148 27.9906ZM97.996 54.4947C97.996 61.2335 93.4834 67.6715 85.7067 73.6883C82.9235 75.8197 79.9818 77.7356 76.9071 79.4194L74.4853 80.6829C70.5252 78.712 66.7669 76.3593 63.2639 73.6583C55.4722 67.6414 50.9595 61.2034 50.9595 54.4646V33.1651L74.4853 27.9906L97.996 33.1651V54.4947Z" fill="#0047BA"/>
<path d="M73.0936 63.7054L92.3648 44.6746C93.1002 43.9482 93.1002 42.7709 92.3648 42.0445C91.6294 41.3185 90.4369 41.3185 89.7016 42.0445L71.762 59.7604L62.5478 50.661C61.8124 49.9351 60.6199 49.9351 59.8846 50.661C59.1491 51.3875 59.1491 52.5648 59.8846 53.2912L70.4304 63.7054C70.6051 63.8783 70.8126 64.0154 71.0411 64.1089C71.2696 64.2023 71.5146 64.2503 71.7619 64.25C72.2439 64.25 72.7259 64.0684 73.0936 63.7054Z" fill="#0047BA"/>
<defs>
<linearGradient id="paint0_linear_1348_13345" x1="75.0413" y1="24.7109" x2="74.4997" y2="81.5859" gradientUnits="userSpaceOnUse">
<stop stop-color="#0029BA"/>
<stop offset="0.508334" stop-color="#0029BA" stop-opacity="0"/>
</linearGradient>
</defs>
</svg>
