<svg width="150" height="110" viewBox="0 0 150 110" fill="none" xmlns="http://www.w3.org/2000/svg">
<path d="M68.5426 53.3123L74.8308 61.4602L80.7821 53.3123C93.0217 53.9605 95.2674 58.4972 96.6149 59.9786C97.9624 61.4601 103.352 75.6262 102.117 80.4409C100.882 85.2555 95.2674 85.8111 74.8308 86.1814C54.3942 86.5518 48.2183 84.9778 47.2077 80.4409C46.1971 75.904 49.0043 68.9599 52.8221 60.812C55.8764 54.2938 64.575 53.0963 68.5426 53.3123Z" fill="#0047BA"/>
<path d="M62.6304 38.7095C60.2175 36.4302 61.1837 34.5094 62.1656 33.6679C62.2835 33.5669 62.3966 33.4658 62.5014 33.3512C65.4142 30.1657 74.0246 25.9339 86.6005 33.1959C86.7099 33.2591 86.8184 33.3361 86.911 33.422C89.1969 35.5418 87.9565 37.5825 86.5985 38.7235C86.132 39.1154 85.7762 39.635 85.6406 40.2289C84.8031 43.8993 81.6814 49.7652 74.2603 49.7652C66.7888 49.7652 64.0132 43.8195 63.4093 40.1545C63.3181 39.6008 63.0383 39.0949 62.6304 38.7095Z" fill="url(#paint0_linear_1348_13445)" fill-opacity="0.3"/>
<path d="M63.3015 39.2829C59.8709 36.6105 61.2368 34.3297 62.3485 33.5234C65.1151 30.309 73.8722 25.7629 86.7677 33.293C89.7218 35.8733 87.3633 38.3614 85.8147 39.2829C85.3382 42.777 82.3603 49.7652 74.2603 49.7652C66.1602 49.7652 63.5794 42.777 63.3015 39.2829Z" stroke="#0047BA" stroke-width="2"/>
<path d="M87.1739 26.3837V34.4132C87.1739 35.0211 86.7868 36.3547 85.2387 36.8254C83.3036 37.4137 80.5324 34.4132 74.9881 34.4132C69.4437 34.4132 68.2367 36.8254 65.237 36.8254C62.8837 36.8254 62.8836 34.4722 62.9185 33.5866V24.8487C62.9185 22.6051 65.7037 18 74.9881 18C84.2724 18 87.1739 23.6679 87.1739 26.3837Z" fill="#0047BA"/>
<ellipse cx="75.2366" cy="26.8243" rx="4.70635" ry="2.94147" fill="white"/>
<ellipse cx="75.2366" cy="26.8243" rx="4.70635" ry="2.94147" fill="url(#paint1_linear_1348_13445)" fill-opacity="0.3"/>
<path d="M71.7361 42.2604C71.8782 42.766 72.1794 43.2123 72.595 43.5332C73.0107 43.8542 73.5187 44.0326 74.0438 44.042C74.5688 44.0515 75.083 43.8915 75.5099 43.5858C75.9369 43.2801 76.254 42.8449 76.4142 42.3448" stroke="#0047BA"/>
<ellipse cx="75.0911" cy="79.0266" rx="13.972" ry="13.972" fill="white"/>
<path d="M63.8641 75.207C66.0868 69.4912 72.3319 67.5859 74.6606 67.5859C76.9893 67.5859 83.2342 68.8561 86.0921 75.207C86.9829 77.1863 85.457 77.203 83.5518 76.7947C80.5881 76.1596 73.3904 75.2705 68.3097 76.7947C63.229 78.3189 63.3701 76.4772 63.8641 75.207Z" fill="#0047BA"/>
<path d="M64.97 79.7747L70.4764 80.6558C71.2095 80.7731 71.5637 81.6203 71.1321 82.2244L67.87 86.7913C67.5563 87.2305 66.9446 87.3457 66.5297 87.0004C63.9885 84.8857 63.6791 82.1528 63.9382 80.4651C64.0125 79.9812 64.4865 79.6974 64.97 79.7747Z" fill="#0047BA"/>
<path d="M70.1362 88.4038L73.5379 82.8295C73.9246 82.1957 74.8428 82.1896 75.238 82.8182L78.7428 88.3924C79.0301 88.8493 78.9049 89.4577 78.4311 89.7162C75.0654 91.5524 72.0137 90.643 70.3795 89.6263C69.9638 89.3676 69.8812 88.8217 70.1362 88.4038Z" fill="#0047BA"/>
<path d="M81.9504 87.1007L77.8931 81.9839C77.4317 81.4021 77.743 80.5382 78.4693 80.3843L84.9108 79.0193C85.4388 78.9075 85.9665 79.2349 86.0455 79.7688C86.607 83.5615 84.7001 86.1117 83.1817 87.2944C82.7954 87.5953 82.2546 87.4843 81.9504 87.1007Z" fill="#0047BA"/>
<circle cx="74.4565" cy="78.8256" r="1.48187" fill="white"/>
<defs>
<linearGradient id="paint0_linear_1348_13445" x1="74.6489" y1="29.1953" x2="74.5197" y2="48.8311" gradientUnits="userSpaceOnUse">
<stop stop-color="#0029BA"/>
<stop offset="0.737517" stop-color="#0029BA" stop-opacity="0"/>
</linearGradient>
<linearGradient id="paint1_linear_1348_13445" x1="75.2366" y1="23.8828" x2="75.2062" y2="29.4987" gradientUnits="userSpaceOnUse">
<stop stop-color="#0029BA"/>
<stop offset="0.508334" stop-color="#0029BA" stop-opacity="0"/>
</linearGradient>
</defs>
</svg>
