<svg width="150" height="110" viewBox="0 0 150 110" fill="none" xmlns="http://www.w3.org/2000/svg">
<path d="M68.3432 43.5466C68.3432 50.2268 66.8975 56.2373 64.597 60.5507C62.2793 64.8963 59.205 67.3432 56.0017 67.3432C52.7984 67.3432 49.724 64.8963 47.4063 60.5507C45.1059 56.2373 43.6602 50.2268 43.6602 43.5466C43.6602 36.8664 45.1059 30.8559 47.4063 26.5425C49.724 22.1969 52.7984 19.75 56.0017 19.75C59.205 19.75 62.2793 22.1969 64.597 26.5425C66.8975 30.8559 68.3432 36.8664 68.3432 43.5466Z" stroke="#6394E2" stroke-width="1.5"/>
<path d="M72.3655 26.0859C68.0017 31.5407 62.5469 33.1772 56.0011 33.1772C48.3644 33.1772 44.0006 30.9953 39.6367 26.0859" stroke="#6394E2" stroke-width="1.5"/>
<path d="M55.7285 20.0937L55.7285 67.005" stroke="#6394E2" stroke-width="1.5"/>
<line x1="32" y1="44.4375" x2="80.0022" y2="44.4375" stroke="#6394E2" stroke-width="1.5"/>
<path d="M80.3432 43.5466C80.3432 56.6891 69.6891 67.3432 56.5466 67.3432C43.4041 67.3432 32.75 56.6891 32.75 43.5466C32.75 30.4041 43.4041 19.75 56.5466 19.75C69.6891 19.75 80.3432 30.4041 80.3432 43.5466Z" stroke="#6394E2" stroke-width="1.5"/>
<path d="M70.5984 85.5812H100.324C102.321 85.5812 103.311 86.4755 103.311 88.2722V88.3045C103.311 90.1012 102.321 90.9955 100.324 90.9955H70.5984C68.602 90.9955 67.6119 90.1012 67.6119 88.3045V88.2722C67.6037 86.4755 68.602 85.5812 70.5984 85.5812ZM111.158 34.2656H59.7652C55.8787 34.2656 52.7285 37.0937 52.7285 40.5904V73.8581C52.7285 77.3549 55.8787 80.1829 59.7652 80.1829H111.149C115.036 80.1829 118.186 77.3549 118.186 73.8581V40.5904C118.194 37.0937 115.044 34.2656 111.158 34.2656ZM70.5821 67.1305C70.5821 68.6291 69.7475 69.3784 68.0783 69.3784H67.1292C65.46 69.3784 64.6254 68.6291 64.6254 67.1305V52.7244C64.6254 51.2258 65.46 50.4765 67.1292 50.4765H68.0783C69.7475 50.4765 70.5821 51.2258 70.5821 52.7244V67.1305ZM82.479 66.7034C82.479 68.484 81.4889 69.3784 79.5088 69.3784C77.5206 69.3784 76.5387 68.484 76.5387 66.7034V61.2407C76.5387 59.4601 77.5288 58.5658 79.5088 58.5658C81.4971 58.5658 82.479 59.4601 82.479 61.2407V66.7034ZM94.3841 66.7034C94.3841 68.484 93.394 69.3784 91.4139 69.3784C89.4257 69.3784 88.4438 68.484 88.4438 66.7034V47.7451C88.4438 45.9645 89.4338 45.0702 91.4139 45.0702C93.4022 45.0702 94.3841 45.9645 94.3841 47.7451V66.7034ZM106.289 66.7034C106.289 68.484 105.299 69.3784 103.319 69.3784C101.331 69.3784 100.349 68.484 100.349 66.7034V58.5497C100.349 56.7691 101.339 55.8747 103.319 55.8747C105.307 55.8747 106.289 56.7691 106.289 58.5497V66.7034Z" fill="#0047BA"/>
<rect x="61.4561" y="40.8125" width="49.0932" height="32.7288" fill="white"/>
<rect x="61.4561" y="40.8125" width="49.0932" height="32.7288" fill="url(#paint0_linear_1348_13347)" fill-opacity="0.3"/>
<rect x="68.001" y="56.0938" width="3.27288" height="10.9096" fill="#0047BA"/>
<rect x="98.5488" y="56.0938" width="3.27288" height="10.9096" fill="#0047BA"/>
<rect x="75.6387" y="50.6328" width="3.27288" height="16.3644" fill="#0047BA"/>
<rect x="90.9121" y="50.6328" width="3.27288" height="16.3644" fill="#0047BA"/>
<rect x="83.2754" y="47.3672" width="3.27288" height="19.6373" fill="#0047BA"/>
<defs>
<linearGradient id="paint0_linear_1348_13347" x1="61.4561" y1="75.4741" x2="77.0352" y2="44.7737" gradientUnits="userSpaceOnUse">
<stop offset="0.133677" stop-color="#0029BA"/>
<stop offset="1" stop-color="#0029BA" stop-opacity="0"/>
</linearGradient>
</defs>
</svg>
