<svg width="27" height="26" viewBox="0 0 27 26" fill="none" xmlns="http://www.w3.org/2000/svg">
<path d="M14.4169 17.9505C14.4169 18.2363 14.3078 18.5247 14.0896 18.7429C13.6531 19.1794 12.9438 19.1794 12.5073 18.7429L2.42893 8.66459C1.99244 8.2281 1.99244 7.5188 2.42893 7.0823C2.86543 6.64581 3.57473 6.64581 4.01123 7.0823L14.0896 17.1606C14.3078 17.3789 14.4169 17.6647 14.4169 17.9505Z" fill="#333333"/>
<path d="M24.5029 7.87475C24.5029 8.16055 24.3938 8.44895 24.1755 8.66719L14.0972 18.7429C13.6607 19.1794 12.9514 19.1794 12.5149 18.7429C12.0784 18.3064 12.0784 17.5971 12.5149 17.1606L22.5932 7.0823C23.0297 6.64581 23.739 6.64581 24.1755 7.0823C24.3938 7.30055 24.5029 7.58635 24.5029 7.87475Z" fill="#333333"/>
</svg>
